<svg width="301" height="300" viewBox="0 0 301 300" fill="none" xmlns="http://www.w3.org/2000/svg">
<path fill-rule="evenodd" clip-rule="evenodd" d="M60.2664 64.9446C60.297 64.4354 60.7058 64.0309 61.2153 64.0057C62.7604 63.9293 65.1647 63.865 67.3649 63.9207C68.4635 63.9486 69.5297 64.0067 70.4201 64.1118C70.865 64.1643 71.2816 64.2303 71.6446 64.3146C71.9252 64.3799 72.2171 64.4656 72.4769 64.5873C73.0316 64.6814 74.2403 64.8704 75.5909 65.0315C76.9945 65.1989 78.1152 65.7927 78.7642 66.2731C81.0736 66.025 84.1868 66.2765 87.1961 66.7266C90.4269 67.2098 93.6526 67.94 95.843 68.6149C96.346 68.7699 96.8518 68.9556 97.3571 69.1657C97.8694 69.3788 98.3829 69.6178 98.8945 69.8766C98.9001 69.8795 98.9058 69.8823 98.9114 69.8852C102.455 71.6815 106.041 74.5052 108.634 76.5577C110.232 77.8225 113.546 79.7411 116.904 81.5898C118.419 82.4238 119.942 83.2427 121.287 83.9662C122.871 84.8178 124.208 85.5372 124.998 85.9932C125.316 86.1766 125.618 86.464 125.888 86.7601C126.172 87.0708 126.479 87.456 126.801 87.8951C127.447 88.7739 128.196 89.9219 129.006 91.2409C130.627 93.8816 132.534 97.2706 134.416 100.702C135.68 103.007 136.939 105.342 138.096 107.488C138.662 108.538 139.204 109.542 139.71 110.476C141.268 113.351 142.464 115.51 143.03 116.344C145.423 119.867 151.266 127.604 158.117 131.98C161.483 134.129 166.309 135.637 170.955 136.728C174.085 137.463 177.024 137.987 179.346 138.401C180.486 138.604 181.477 138.78 182.269 138.942C186.892 139.889 231.831 148.884 238.548 150.178C243.93 151.215 259.966 154.4 267.308 155.863L266.918 157.824C259.572 156.361 243.543 153.177 238.169 152.142C231.442 150.846 186.495 141.849 181.868 140.902C181.158 140.757 180.217 140.589 179.112 140.391C176.761 139.972 173.67 139.42 170.498 138.675C165.814 137.576 160.708 136.007 157.041 133.665C149.828 129.059 143.797 121.034 141.376 117.468C140.739 116.529 139.484 114.256 137.951 111.429C137.441 110.488 136.898 109.48 136.331 108.429C135.176 106.286 133.923 103.964 132.662 101.664C130.783 98.2373 128.896 94.8842 127.301 92.2875C126.503 90.9877 125.788 89.8932 125.19 89.0793C124.89 88.6719 124.63 88.3481 124.412 88.109C124.18 87.8552 124.044 87.7519 123.998 87.7253C123.223 87.2777 121.936 86.5859 120.39 85.7544C119.047 85.0328 117.509 84.2059 115.94 83.3419C112.621 81.5151 109.147 79.5147 107.393 78.1258C105.193 76.3848 102.423 74.2088 99.6189 72.5552C99.5805 72.7713 99.5359 72.968 99.4947 73.1246L97.5603 72.6168C97.5811 72.5377 97.6024 72.4463 97.6225 72.3482L96.1531 71.4998C96.1764 71.4594 96.2177 71.3237 96.1917 71.0611C96.1842 70.9849 96.1721 70.9101 96.1577 70.8398C95.8518 70.7224 95.5503 70.6175 95.254 70.5262C93.1757 69.8858 90.0501 69.1757 86.9003 68.7046C84.5037 68.3462 82.1577 68.1363 80.2737 68.1811C80.338 68.4341 80.3595 68.7174 80.2976 69.0198L78.3382 68.6188C78.3312 68.6531 78.3351 68.6735 78.3351 68.6735C78.335 68.6735 78.3344 68.67 78.3321 68.6627C78.3229 68.634 78.2982 68.5794 78.2449 68.5033C78.1334 68.3445 77.9735 68.2001 77.8767 68.1306C77.8374 68.1023 77.8002 68.0712 77.7653 68.0375C77.5326 67.8125 76.6149 67.1678 75.3541 67.0174C74.4232 66.9064 73.5572 66.7825 72.9112 66.6829C72.807 66.9614 72.6657 67.2555 72.4795 67.5364C71.9472 68.3394 70.9968 69.0941 69.5269 69.0059C69.4405 69.0007 69.3032 68.9998 69.1233 68.9987C68.0627 68.9919 65.5181 68.9756 63.155 68.0129C63.0652 68.2806 62.9951 68.6005 62.9708 68.9476C62.9201 69.6743 63.0872 70.2586 63.3996 70.5901C63.7345 70.9455 64.4349 71.4526 65.4652 72.0061C66.4743 72.5482 67.7339 73.0996 69.1283 73.5667C71.8095 74.4648 74.8868 75.0169 77.5866 74.6722C77.7458 74.4501 77.9276 74.1649 78.0833 73.8565C78.3319 73.3639 78.4439 72.9488 78.4265 72.6803L80.4224 72.5515C80.4744 73.3573 80.1694 74.162 79.8687 74.7577C79.7734 74.9465 79.6715 75.128 79.568 75.2985C81.3263 76.3353 83.9916 77.832 85.4014 78.3739C86.2339 78.6939 86.7996 78.7811 87.4446 78.8805C87.7711 78.9308 88.1178 78.9842 88.5297 79.0725C89.3072 79.2393 90.1401 79.5154 91.1831 80.1176C91.5235 80.3141 91.8315 80.3278 92.1482 80.2354C92.5289 80.1242 92.9419 79.8485 93.3393 79.4567C93.7295 79.072 94.0459 78.6332 94.2402 78.2966L95.9722 79.2966C95.6983 79.771 95.2753 80.3566 94.7434 80.8809C94.7024 80.9214 94.6604 80.9618 94.6174 81.0021C94.9187 81.2383 95.2152 81.5345 95.4905 81.901C95.85 82.3795 96.1445 82.9314 96.409 83.4273C96.4625 83.5275 96.5147 83.6254 96.566 83.72C96.8885 84.3143 97.2202 84.8733 97.6893 85.3983C98.0701 85.8244 98.5527 86.24 99.2093 86.6191C99.6534 86.8755 100.086 87.1367 100.511 87.3929C101.284 87.8597 102.03 88.3096 102.765 88.6828C103.318 88.964 103.808 89.1702 104.23 89.2842C104.658 89.4001 104.939 89.3997 105.114 89.3543C105.176 89.3383 105.227 89.3162 105.271 89.2892C106.478 88.5437 107.332 87.8622 107.579 87.6435L108.905 89.1399C108.563 89.4433 107.615 90.1921 106.321 90.9909C106.31 90.9977 106.299 91.0044 106.288 91.011C106.3 91.0438 106.317 91.0763 106.34 91.109C106.375 91.1565 106.44 91.2245 106.565 91.2967L105.565 93.0288C104.975 92.6882 104.61 92.2233 104.422 91.7295C104.393 92.0278 104.3 92.3027 104.208 92.5195C104.08 92.8253 103.906 93.1287 103.73 93.402C103.609 93.5899 103.479 93.774 103.349 93.9477C105.997 96.0317 109.842 99.2353 111.978 101.645C111.882 101.334 111.793 101.024 111.712 100.718C111.141 98.5532 110.901 96.4276 110.855 95.109L112.853 95.0394C112.895 96.2241 113.116 98.2006 113.646 100.207C113.998 101.538 114.47 102.824 115.077 103.891C115.168 103.732 115.262 103.582 115.355 103.443C115.851 102.697 116.449 102.042 116.862 101.655L118.231 103.112C117.93 103.395 117.476 103.889 117.093 104.444C117.761 104.003 118.383 103.798 118.81 103.755L119.009 105.745C119.009 105.745 119.008 105.745 119.005 105.746L118.992 105.748C118.98 105.75 118.964 105.753 118.944 105.758C118.904 105.768 118.852 105.784 118.788 105.807C118.66 105.853 118.496 105.928 118.31 106.04C118.147 106.138 117.968 106.265 117.781 106.427C119.45 107.481 121.056 108.353 122.221 108.985C122.702 109.247 123.108 109.467 123.411 109.643C125.341 110.757 127.636 112.535 129.587 115.171L127.979 116.361C126.218 113.981 124.145 112.376 122.411 111.375C122.16 111.229 121.798 111.033 121.354 110.792C119.969 110.04 117.788 108.855 115.692 107.455C115.41 107.266 115.128 107.073 114.848 106.875C113.331 105.804 111.849 104.585 110.747 103.279C108.634 100.774 104.058 97.0162 101.315 94.8972C101.006 94.6587 100.722 94.4425 100.471 94.2531C99.0703 93.422 96.8575 92.1669 94.7194 91.0719C94.4053 90.911 94.0937 90.7541 93.7873 90.6028C94.1235 91.239 94.362 91.9546 94.3936 92.7244C94.4322 93.6663 94.1572 94.6187 93.4943 95.5198C92.6917 96.6108 91.7021 97.2288 90.6281 97.4626C89.5792 97.691 88.5326 97.5358 87.6096 97.2363C87.433 97.179 87.2586 97.1156 87.0869 97.0473C87.9819 98.4082 88.8458 99.6411 89.3981 100.264C90.9367 101.999 94.1718 105.116 96.8363 106.654C98.0871 107.376 99.5818 108.35 100.986 109.457C102.784 110.875 104.558 112.606 105.389 114.386C105.928 115.541 107.79 118.846 109.818 122.442C111.049 124.626 112.341 126.918 113.434 128.902C114.082 130.077 114.657 131.14 115.102 131.997C115.462 132.691 115.759 133.293 115.933 133.716C116.635 134.424 117.29 135.333 117.852 136.182C118.159 136.646 118.449 137.107 118.71 137.526L118.786 137.648C119.018 138.021 119.224 138.35 119.406 138.626C120.181 139.8 122.602 142.693 123.911 144.219C124.059 144.282 124.185 144.359 124.283 144.427C124.5 144.575 124.713 144.765 124.917 144.969C125.303 145.355 125.749 145.881 126.248 146.495C127.807 147.584 130.193 149.183 132.424 150.536C133.568 151.23 134.657 151.851 135.566 152.305C136.02 152.531 136.416 152.71 136.742 152.833C137.066 152.956 137.266 153.003 137.364 153.014C138.152 153.042 139.41 153.136 140.693 153.334C141.075 153.393 141.471 153.462 141.864 153.544C141.58 152.886 141.387 152.293 141.274 151.809C141.231 151.772 141.188 151.736 141.145 151.698C140.857 151.452 140.553 151.191 140.287 150.938C139.885 150.557 139.478 150.115 139.183 149.587C138.878 149.04 138.7 148.414 138.744 147.695C138.787 146.992 139.038 146.266 139.479 145.502C140.427 143.859 141.785 143.143 143.3 143.098C144.654 143.058 146.053 143.554 147.299 144.141C148.854 144.297 150.633 144.864 152.412 145.603C154.279 146.379 156.214 147.374 157.996 148.376C161.38 150.277 164.268 152.237 165.171 152.849C165.22 152.882 165.262 152.911 165.299 152.936C165.654 153.176 166.43 153.785 167.426 154.566C167.551 154.664 167.679 154.765 167.811 154.868C169.015 155.812 170.53 156.995 172.151 158.208C175.431 160.662 179.019 163.139 181.326 164.065C183.369 164.885 186.913 166.863 190.454 168.957C194.009 171.06 197.636 173.327 199.9 174.777C200.226 174.969 200.547 175.235 200.857 175.543C200.888 175.541 200.919 175.54 200.949 175.539C201.281 175.533 201.668 175.583 202.11 175.692C202.995 175.91 204.186 176.39 205.746 177.291C207.579 178.349 215.683 182.317 224.963 186.399C234.251 190.485 244.578 194.625 250.878 196.072L250.43 198.021C243.919 196.525 233.428 192.308 224.157 188.23C214.878 184.147 206.684 180.141 204.746 179.023C204.001 178.593 203.372 178.281 202.85 178.058C203.469 178.969 204.112 180.007 204.758 181.104C205.99 183.195 207.272 185.564 208.474 187.801C209.89 190.439 215.73 199.241 222.584 208.587C229.444 217.94 237.209 227.685 242.463 232.271L241.148 233.777C235.703 229.025 227.816 219.103 220.971 209.769C214.12 200.428 208.203 191.524 206.712 188.748C205.509 186.508 204.244 184.171 203.035 182.119C201.817 180.051 200.691 178.337 199.772 177.305C199.384 176.87 199.084 176.616 198.878 176.497C198.871 176.493 198.864 176.489 198.857 176.484C198.851 176.481 198.844 176.477 198.838 176.472C196.592 175.032 192.976 172.773 189.435 170.679C185.87 168.57 182.457 166.675 180.581 165.921C177.989 164.881 174.193 162.234 170.953 159.809C169.313 158.582 167.783 157.388 166.577 156.442C166.458 156.349 166.343 156.259 166.232 156.172C165.188 155.353 164.471 154.79 164.178 154.592C164.142 154.568 164.099 154.539 164.052 154.506C163.154 153.898 160.325 151.979 157.016 150.119C155.469 149.249 153.83 148.4 152.244 147.706C152.456 148.014 152.627 148.326 152.758 148.643C153.443 150.299 152.946 151.805 152.309 152.909C151.614 154.112 150.509 154.935 149.196 155.229C147.886 155.522 146.444 155.275 145.074 154.483C144.855 154.357 144.617 154.217 144.364 154.063C144.483 154.269 144.613 154.479 144.753 154.692C145.54 155.888 146.652 157.166 148.177 158.282C149.905 159.547 152.523 161.06 155.273 162.65C155.923 163.025 156.579 163.405 157.234 163.787C159.128 164.892 160.989 166.008 162.52 167.058C164.015 168.083 165.327 169.13 165.999 170.116C166.333 170.606 166.725 171.17 167.149 171.781L167.156 171.791C168.259 173.38 169.578 175.281 170.598 176.908C171.107 177.722 171.557 178.491 171.869 179.132C172.025 179.451 172.159 179.764 172.248 180.05C172.325 180.298 172.42 180.678 172.341 181.061L170.382 180.66C170.367 180.732 170.372 180.775 170.371 180.775C170.371 180.775 170.367 180.736 170.338 180.644C170.292 180.494 170.206 180.283 170.072 180.009C169.805 179.462 169.4 178.763 168.903 177.97C168.063 176.629 167.006 175.087 166.027 173.673C165.261 174.068 164.267 174.482 163.152 174.776C163.426 174.933 163.683 175.089 163.903 175.236C164.068 175.347 164.23 175.465 164.369 175.584C164.476 175.677 164.687 175.867 164.81 176.135L162.993 176.972C163.029 177.049 163.068 177.099 163.086 177.12C163.08 177.115 163.072 177.107 163.061 177.098C163.009 177.053 162.921 176.986 162.79 176.898C162.529 176.724 162.171 176.513 161.759 176.288C161.011 175.878 160.148 175.452 159.524 175.158C159.516 175.157 159.507 175.157 159.499 175.156C159.847 176.058 160.06 177.16 159.913 178.393L157.927 178.156C158.15 176.286 157.171 174.826 156.718 174.388C155.938 173.634 153.617 171.85 150.874 171.018C147.053 169.86 144.926 168.487 142.704 166.294C141.662 165.266 139.394 163.105 137.144 161.275C136.016 160.358 134.92 159.547 134.001 159.004C133.582 158.756 133.226 158.58 132.937 158.472C132.617 159.408 131.985 160.644 130.883 161.511L129.646 159.939C130.639 159.157 131.112 157.787 131.207 157.221C131.225 157.108 131.263 157.001 131.317 156.903C131.305 156.808 131.267 156.635 131.159 156.367C130.888 155.694 130.247 154.596 128.887 152.969C127.728 151.583 126.72 150.307 125.878 149.242C125.474 148.73 125.108 148.266 124.781 147.862C124.248 147.202 123.829 146.71 123.504 146.385C123.347 146.229 123.236 146.135 123.164 146.084C122.833 146.067 122.63 146.071 122.449 146.1C122.259 146.131 122.044 146.197 121.702 146.365L120.816 144.573C121.011 144.476 121.196 144.394 121.379 144.327C120.064 142.765 118.402 140.736 117.736 139.727C117.539 139.429 117.319 139.076 117.09 138.709L117.013 138.584C116.752 138.167 116.475 137.726 116.184 137.286C115.594 136.395 114.982 135.568 114.389 135.003C114.062 134.693 113.787 134.507 113.57 134.417C112.989 134.177 112.248 134.039 111.55 133.965C111.846 134.464 112.148 134.999 112.421 135.527C112.727 136.121 113.008 136.73 113.201 137.283C113.376 137.786 113.546 138.421 113.447 138.984C113.301 139.807 112.842 140.506 112.408 141.011C112.222 141.228 112.026 141.426 111.836 141.598C112.703 143.367 113.962 145.993 114.924 148.146C115.098 148.039 115.321 147.954 115.591 147.952L115.598 148.979C115.69 148.94 115.787 148.906 115.888 148.878L116.406 150.81C116.373 150.819 116.272 150.868 116.128 151.01C116.125 151.013 116.122 151.016 116.119 151.019C116.134 151.06 116.147 151.099 116.161 151.138C116.512 152.169 117.621 154.607 118.948 157.252C119.974 159.296 121.101 161.405 122.062 163.01C122.155 162.908 122.258 162.807 122.368 162.72C122.463 162.645 122.617 162.537 122.818 162.471C123.031 162.4 123.388 162.351 123.747 162.559L122.803 164.194C122.817 164.216 122.832 164.238 122.846 164.26C122.871 164.297 122.894 164.332 122.918 164.367C123.117 164.432 123.295 164.411 123.404 164.382C123.492 164.282 123.582 164.182 123.674 164.085C123.939 163.803 124.231 163.522 124.528 163.294C124.799 163.086 125.183 162.835 125.621 162.759L125.962 164.73C125.974 164.728 125.98 164.726 125.981 164.727C125.981 164.729 125.906 164.757 125.746 164.88C125.566 165.018 125.356 165.216 125.131 165.455C124.911 165.688 124.695 165.943 124.502 166.184C125.375 166.981 126.518 167.877 127.706 168.808C127.947 168.997 128.189 169.186 128.431 169.377C129.286 170.05 130.132 170.73 130.85 171.37C131.554 171.997 132.198 172.642 132.6 173.251C132.72 173.433 132.958 173.709 133.334 174.082C134.191 174.933 135.49 176.027 136.93 177.24C137.624 177.825 138.351 178.437 139.077 179.063C140.172 180.008 141.25 180.972 142.156 181.881C143.047 182.776 143.833 183.677 144.287 184.494C144.614 185.084 145.267 185.711 146.204 186.33C147.126 186.939 148.244 187.49 149.398 187.957C151.741 188.904 154.047 189.434 154.933 189.463L154.866 191.462C153.639 191.421 151.081 190.795 148.649 189.811C147.415 189.312 146.168 188.704 145.101 187.999C144.05 187.304 143.091 186.462 142.538 185.465C142.226 184.902 141.606 184.163 140.739 183.293C139.887 182.437 138.854 181.512 137.77 180.578C137.287 180.161 136.79 179.74 136.296 179.322C137.256 180.827 138.348 182.33 139.438 183.44C140.833 184.861 141.581 186.053 142.16 186.977C142.293 187.19 142.418 187.389 142.539 187.573C142.861 188.061 143.156 188.441 143.543 188.78C143.929 189.117 144.444 189.446 145.234 189.771C146.703 190.377 148.779 190.867 151.082 191.41C151.362 191.476 151.645 191.543 151.931 191.611C154.505 192.223 157.27 192.919 159.412 193.928C161.221 194.781 162.85 195.385 164.588 196.029C164.758 196.093 164.93 196.156 165.102 196.22C167.033 196.938 169.1 197.729 171.609 198.958C171.978 199.139 172.4 199.344 172.864 199.57C175.486 200.847 179.488 202.796 183.302 204.845C185.547 206.05 187.742 207.299 189.563 208.474C191.353 209.628 192.886 210.776 193.71 211.791C194.062 212.226 194.544 212.806 195.121 213.503C196.847 215.585 199.431 218.703 202.015 222.056C205.447 226.51 208.979 231.508 210.525 235.16C210.971 236.213 211.333 237.077 211.633 237.795C212.351 239.511 212.718 240.386 213.038 240.989C213.367 241.608 213.602 241.863 214.29 242.609C214.452 242.786 214.64 242.989 214.86 243.231C216.855 245.427 217.022 247.968 216.808 249.097L214.843 248.725C214.956 248.127 214.897 246.247 213.379 244.576C213.194 244.372 213.026 244.19 212.871 244.023C212.154 243.248 211.73 242.79 211.272 241.928C210.906 241.238 210.486 240.235 209.734 238.438C209.44 237.736 209.095 236.913 208.683 235.94C207.252 232.558 203.876 227.749 200.43 223.277C197.872 219.956 195.333 216.892 193.606 214.809C193.018 214.1 192.525 213.505 192.157 213.052C191.554 212.309 190.268 211.309 188.479 210.155C186.722 209.021 184.579 207.801 182.355 206.606C178.581 204.579 174.621 202.65 171.996 201.372C171.529 201.144 171.103 200.937 170.729 200.754C168.311 199.569 166.318 198.806 164.405 198.095C164.232 198.03 164.059 197.966 163.886 197.902C162.156 197.261 160.449 196.628 158.559 195.737C156.635 194.831 154.074 194.176 151.469 193.557C151.184 193.489 150.897 193.422 150.611 193.354C148.349 192.821 146.1 192.292 144.472 191.62C143.521 191.228 142.807 190.793 142.226 190.285C141.647 189.779 141.238 189.232 140.87 188.675C140.723 188.452 140.582 188.227 140.437 187.997C139.864 187.085 139.242 186.095 138.011 184.842C135.351 182.133 132.812 177.491 131.8 175.376C131.452 175.023 131.143 174.674 130.931 174.353C130.68 173.973 130.201 173.471 129.519 172.862C128.85 172.266 128.046 171.62 127.194 170.948C126.962 170.766 126.727 170.581 126.489 170.395C125.012 169.239 123.463 168.026 122.455 166.988C122.316 166.845 122.185 166.703 122.062 166.561C121.79 166.245 121.491 165.834 121.181 165.368C120.023 163.627 118.489 160.796 117.16 158.149C115.837 155.512 114.669 152.961 114.267 151.783C114.214 151.625 114.144 151.436 114.058 151.217C114 151.067 113.935 150.906 113.864 150.733C112.855 148.28 110.76 143.93 109.687 141.76C109.682 141.75 109.677 141.74 109.672 141.729L105.883 133.364C105.719 133.002 105.785 132.576 106.052 132.281C106.385 131.912 106.966 131.519 107.716 131.394C108.416 131.277 109.202 131.403 109.989 131.893C110.698 131.883 111.826 131.929 112.925 132.153C112.62 131.58 112.272 130.94 111.894 130.25C111.881 130.246 111.868 130.242 111.856 130.238C111.624 130.16 111.334 130.047 110.979 129.89C110.268 129.574 109.265 129.068 107.908 128.285C107.422 128.004 106.98 127.565 106.583 127.077C106.178 126.579 105.776 125.975 105.383 125.306C104.595 123.968 103.801 122.302 103.053 120.551C101.613 117.179 100.306 113.404 99.5049 110.839C98.3995 109.986 97.2418 109.221 96.2201 108.611C95.4727 108.795 94.3472 108.819 93.2293 108.174C92.8054 107.929 92.0569 107.674 91.2117 107.453C90.6995 107.319 90.1891 107.206 89.7584 107.121C88.9798 108.372 87.9352 109.57 87.0956 110.415C87.7077 111.789 88.2311 113.54 88.0698 115.199C87.9284 116.652 87.219 117.944 86.4634 118.934C85.8432 119.746 85.1491 120.41 84.5894 120.858C84.4233 121.649 83.9384 122.201 83.4452 122.538C82.963 122.868 82.3647 123.067 81.8604 123.037C81.438 123.012 81.0773 122.723 80.9597 122.316C80.6665 121.303 80.1949 119.879 79.7421 118.512L79.6683 118.29C79.2056 116.893 78.7577 115.535 78.6035 114.882C78.5802 114.783 78.5722 114.681 78.5793 114.581C78.5778 114.572 78.5758 114.561 78.5732 114.547C78.5542 114.447 78.5176 114.295 78.4612 114.093C78.3496 113.693 78.1802 113.164 77.9813 112.576C77.8958 112.324 77.8056 112.063 77.7135 111.801C77.578 112.111 77.4415 112.388 77.306 112.623C76.573 113.892 75.4025 114.45 74.3289 114.64C73.6072 114.767 72.8979 114.737 72.3135 114.641C71.8252 115.175 71.2465 115.434 70.6742 115.521C70.324 115.574 70.0044 115.559 69.7606 115.536C69.6397 115.525 69.5265 115.51 69.4436 115.5C69.3504 115.488 69.3028 115.483 69.2711 115.481C68.7263 115.448 68.3084 114.985 68.332 114.44C68.4037 112.78 68.5158 110.397 68.6667 108.328C68.742 107.295 68.8279 106.328 68.9248 105.563C68.9732 105.181 69.0261 104.836 69.0849 104.55C69.1171 104.394 69.161 104.202 69.227 104.018C69.2322 103.921 69.2416 103.831 69.2493 103.759C69.2701 103.565 69.3029 103.326 69.3433 103.059C69.4244 102.524 69.5417 101.842 69.6732 101.116C69.7565 100.655 69.846 100.174 69.9363 99.6976C69.9135 99.7178 69.8906 99.7379 69.8677 99.7581C69.0431 100.481 68.0597 101.203 67.0315 101.88C64.9777 103.232 62.6802 104.45 60.9734 105.179C57.5866 106.625 54.774 105.25 53.4888 104.12C53.0038 104.077 52.5521 103.945 52.1829 103.802C51.6977 103.614 51.286 103.38 51.0315 103.2C50.7966 103.034 50.6443 102.776 50.6136 102.49C50.5828 102.204 50.6766 101.919 50.8709 101.707C51.9182 100.565 53.5969 98.8287 55.2378 97.3228C56.0572 96.5709 56.8818 95.8628 57.6227 95.3124C58.2127 94.874 58.8472 94.4593 59.4274 94.2521C59.9129 93.7857 60.7342 93.1189 61.6838 92.383C62.8038 91.5151 64.1729 90.498 65.5542 89.4941C68.3072 87.4931 71.1534 85.5119 72.1992 84.8558C73.6107 83.9702 79.032 81.2046 82.7368 79.3431C81.0544 78.4869 79.0898 77.3481 77.9207 76.6456C74.7849 77.0647 71.3496 76.4199 68.4931 75.4632C66.9985 74.9625 65.634 74.3671 64.5187 73.768C63.4245 73.1802 62.5 72.5517 61.9441 71.9618C61.0984 71.0644 60.9046 69.8271 60.9757 68.8083C61.0188 68.1912 61.165 67.5578 61.3993 67.0054C61.0014 66.6722 60.7315 66.3353 60.5539 66.0152C60.415 65.7651 60.3396 65.5377 60.3009 65.3499C60.2817 65.2567 60.2719 65.1747 60.2675 65.1063C60.2653 65.0722 60.2644 65.0414 60.2644 65.0144C60.2644 65.0008 60.2646 64.9882 60.265 64.9766L60.2656 64.9598L60.266 64.952L60.2662 64.9482L60.2663 64.9464C60.2664 64.9455 60.2664 64.9446 61.2646 65.0045L60.2664 64.9446ZM63.3911 65.9279C65.4254 66.9397 67.7529 66.9742 69.0307 66.9932C69.2789 66.9968 69.4875 66.9999 69.6467 67.0095C70.2482 67.0456 70.5792 66.7833 70.8124 66.4315C70.8598 66.36 70.9021 66.2854 70.9395 66.21C70.7221 66.1691 70.4699 66.1315 70.1857 66.098C69.382 66.0032 68.3843 65.9472 67.3143 65.9201C66.0064 65.887 64.618 65.8976 63.3911 65.9279ZM85.1075 80.3924C81.5274 82.1798 74.7748 85.601 73.2621 86.55C72.2807 87.1656 69.4846 89.1098 66.7301 91.1119C65.3576 92.1095 64.0065 93.1134 62.9088 93.9639C62.2812 94.4503 61.7571 94.8708 61.3631 95.2044C61.494 95.4466 61.5901 95.7274 61.6259 96.0463C61.7293 96.968 61.2996 97.9182 60.3705 98.839C59.9834 99.2227 59.5464 99.6732 59.0944 100.139C58.4464 100.807 57.7676 101.507 57.1605 102.088C56.7006 102.527 56.2391 102.942 55.8032 103.276C56.8468 103.79 58.3953 104.105 60.1878 103.34C61.7789 102.66 63.9716 101.5 65.9314 100.21C66.9099 99.565 67.8141 98.8985 68.5493 98.2541C69.2974 97.5984 69.8146 97.0135 70.0804 96.5406C70.3124 96.1279 70.2643 95.9671 70.2556 95.9444L72.1239 95.2308C72.2316 95.5126 72.273 95.7941 72.2663 96.0684C73.0559 95.9649 74.2479 95.6545 75.8072 94.8835C77.2434 94.1734 78.4868 93.717 79.4525 93.3625C79.7395 93.2572 80.002 93.1608 80.2378 93.0695C80.9348 92.7995 81.332 92.5938 81.5709 92.3944C81.4759 92.1958 81.3925 91.988 81.3246 91.7708C80.9548 90.5877 81.0839 89.2567 81.9811 87.837C82.914 86.3607 84.0575 85.4638 85.6114 85.4217C86.9778 85.3846 88.4647 86.0305 90.108 86.9676C90.7684 87.1061 91.5952 87.4119 92.46 87.7816C93.4308 88.1966 94.5277 88.7267 95.6311 89.2918C96.6808 89.8294 97.7459 90.4035 98.7276 90.9489C98.5857 90.6931 98.4381 90.4323 98.2869 90.1695C97.515 88.8288 96.6896 87.5083 96.1502 86.6787C95.3873 85.855 93.9032 84.745 92.2618 83.6498C90.6805 82.5947 89.0404 81.6102 87.9655 80.9988C87.7761 80.9625 87.5705 80.9301 87.3496 80.8953C86.72 80.7962 85.9657 80.6775 85.1075 80.3924ZM100.245 89.5654C100.862 90.6555 101.451 91.7761 101.811 92.6641C101.893 92.5511 101.974 92.4343 102.05 92.317C102.19 92.1003 102.297 91.9044 102.365 91.7439C102.422 91.6081 102.429 91.5483 102.43 91.5484C102.43 91.5484 102.43 91.5549 102.431 91.5673L104.333 91.4446C104.33 91.4295 104.326 91.4145 104.323 91.3994C104.318 91.38 104.314 91.3607 104.311 91.3414C104.105 91.3117 103.903 91.2677 103.708 91.2149C103.098 91.0499 102.47 90.7762 101.859 90.4659C101.34 90.2021 100.791 89.8885 100.245 89.5654ZM89.2475 88.7797C87.5513 87.8012 86.4554 87.3995 85.6657 87.4209C85.0214 87.4384 84.4017 87.7503 83.6717 88.9054C83.0601 89.8733 83.0539 90.5993 83.2335 91.1742C83.4323 91.8104 83.9022 92.3972 84.4815 92.9585C84.5964 93.0698 84.713 93.1777 84.8296 93.283C85.4447 93.8387 86.7865 94.8666 88.2269 95.3339C88.9373 95.5645 89.6084 95.6378 90.2026 95.5084C90.7717 95.3845 91.3507 95.0585 91.8833 94.3346C92.2886 93.7837 92.4145 93.2748 92.3953 92.8063C92.3753 92.3188 92.194 91.8043 91.8717 91.2796C91.2181 90.2154 90.0967 89.2933 89.2475 88.7797ZM82.728 94.0282C82.2049 94.4287 81.578 94.6951 80.9603 94.9345C80.6818 95.0423 80.3904 95.1494 80.0836 95.2621C79.128 95.6131 78.0228 96.0191 76.6937 96.6763C74.853 97.5864 73.3641 97.9716 72.2871 98.0791C72.0872 99.0892 71.8451 100.345 71.6413 101.472C71.511 102.192 71.3975 102.852 71.3207 103.359C71.3174 103.381 71.3142 103.402 71.311 103.424C71.7215 103.551 72.1547 103.748 72.5473 104.037C73.3509 104.629 73.9587 105.602 73.8263 106.974C73.7704 107.554 73.7454 108.141 73.7246 108.742C73.7215 108.833 73.7184 108.924 73.7154 109.015C73.6985 109.522 73.6811 110.041 73.6461 110.542C73.5958 111.263 73.5065 112.009 73.3022 112.725C73.5225 112.726 73.7525 112.71 73.9806 112.67C74.6403 112.553 75.2122 112.249 75.574 111.623C75.9107 111.04 76.3341 109.931 76.7257 108.548C76.9281 107.834 77.1168 107.065 77.2767 106.287C77.3501 105.93 77.4173 105.573 77.477 105.218C77.7073 103.849 77.8184 102.57 77.7569 101.599C77.7048 100.777 77.5405 100.402 77.4449 100.294L78.9413 98.9675C79.319 99.3934 79.5274 99.9639 79.6415 100.557C80.0016 100.509 80.4537 100.386 80.9613 100.13C81.9804 99.6156 83.2312 98.555 84.3399 96.4761C83.8166 95.6487 83.3442 94.8808 82.9949 94.3019C82.9071 94.215 82.8177 94.1238 82.728 94.0282ZM85.5569 98.36C84.5012 100.028 83.3171 101.1 82.1741 101.749C81.8204 102.478 81.2754 103.511 80.6919 104.401L81.3365 105.067C80.8279 105.559 80.2343 105.752 79.7361 105.803L80.8033 107.167C80.528 107.382 80.2154 107.479 79.9744 107.528C79.7223 107.58 79.4654 107.595 79.2374 107.594C79.1706 107.594 79.1039 107.593 79.0379 107.59C78.9438 107.992 78.8435 108.389 78.739 108.773C79.0719 109.657 79.5127 110.864 79.8756 111.935C80.0102 112.332 80.1361 112.717 80.2425 113.063C80.4164 113.005 80.6001 112.962 80.7914 112.941C81.2507 112.892 81.7523 112.972 82.2224 113.267C82.6816 113.555 83.0361 114.001 83.3019 114.558C83.8829 115.777 84.2736 117.064 84.483 118.197C84.615 118.046 84.7463 117.887 84.8738 117.72C85.5089 116.889 85.9877 115.946 86.0792 115.005C86.2131 113.629 85.6651 111.974 84.9926 110.649C84.7299 110.132 84.4633 109.695 84.2429 109.381C84.1322 109.223 84.0402 109.107 83.9727 109.03C83.9299 108.981 83.9094 108.963 83.9094 108.963C83.9095 108.963 83.9344 108.985 83.9821 109.012L84.9821 107.28C85.1932 107.402 85.366 107.586 85.4734 107.708C85.6032 107.855 85.741 108.034 85.8803 108.233C85.9522 108.335 86.0265 108.446 86.1022 108.564C86.9058 107.703 87.7986 106.597 88.3648 105.54C88.8577 104.62 88.9764 103.97 88.8769 103.599L89.6277 103.398C88.9427 102.722 88.3505 102.097 87.9017 101.591C87.2772 100.887 86.4039 99.6403 85.5569 98.36ZM90.8456 104.557C90.8026 104.796 90.7397 105.033 90.6625 105.266C90.9984 105.339 91.3575 105.424 91.7184 105.518C91.8183 105.544 91.9197 105.572 92.022 105.6C91.6184 105.255 91.2242 104.904 90.8456 104.557ZM80.7179 115.029C80.9112 115.675 81.2202 116.614 81.5669 117.661C81.5933 117.741 81.6199 117.821 81.6466 117.902C81.9525 118.825 82.275 119.798 82.5457 120.658C82.5918 120.585 82.6231 120.505 82.6379 120.416C82.6456 120.369 82.6528 120.311 82.6579 120.239C82.7257 119.302 82.3984 117.31 81.4966 115.419C81.3465 115.104 81.2146 114.995 81.1595 114.961C81.1152 114.933 81.0746 114.922 81.0066 114.93C80.9344 114.938 80.8356 114.967 80.7179 115.029ZM70.9625 105.424C70.9447 105.543 70.9268 105.673 70.909 105.814C70.8186 106.527 70.7358 107.453 70.6614 108.474C70.5402 110.135 70.444 112.009 70.3738 113.543C70.558 113.515 70.791 113.438 71.0309 113.022C71.4099 112.366 71.5738 111.508 71.651 110.403C71.6832 109.941 71.6992 109.464 71.7162 108.956C71.7193 108.863 71.7225 108.768 71.7258 108.673C71.7468 108.068 71.7732 107.428 71.8355 106.782C71.8921 106.196 71.6708 105.876 71.3612 105.648C71.2398 105.558 71.1033 105.484 70.9625 105.424ZM59.6371 96.3635C59.4177 96.4924 59.1437 96.6739 58.8155 96.9178C58.1528 97.4102 57.385 98.0669 56.5901 98.7964C55.4263 99.8643 54.2358 101.059 53.2813 102.059C53.4828 102.111 53.6772 102.139 53.8521 102.135C53.8628 102.132 53.9022 102.121 53.9752 102.086C54.0897 102.032 54.2414 101.94 54.4315 101.804C54.8129 101.529 55.2682 101.13 55.7783 100.642C56.3826 100.064 56.9881 99.4389 57.5969 98.81C58.05 98.3421 58.5049 97.8722 58.9626 97.4185C59.5044 96.8816 59.6183 96.5313 59.6371 96.3635ZM102.555 113.682C103.234 115.624 104.041 117.771 104.893 119.765C105.625 121.48 106.38 123.058 107.106 124.292C107.469 124.908 107.815 125.421 108.135 125.815C108.464 126.22 108.725 126.447 108.908 126.553C109.412 126.844 109.86 127.092 110.257 127.304C109.58 126.094 108.868 124.832 108.17 123.593C106.097 119.915 104.146 116.452 103.576 115.232C103.343 114.732 102.993 114.211 102.555 113.682ZM108.968 133.614C108.576 133.358 108.277 133.335 108.077 133.362L110.931 139.661C111.228 139.304 111.422 138.946 111.477 138.636C111.477 138.638 111.476 138.64 111.476 138.64C111.476 138.64 111.48 138.588 111.458 138.464C111.434 138.33 111.387 138.156 111.312 137.942C111.163 137.513 110.928 136.996 110.643 136.443C110.113 135.415 109.45 134.34 108.968 133.614ZM123.111 146.051C123.111 146.051 123.113 146.052 123.119 146.055C123.114 146.053 123.111 146.051 123.111 146.051ZM131.321 156.988C131.321 156.987 131.321 156.984 131.322 156.977C131.322 156.985 131.321 156.988 131.321 156.988ZM133.274 156.478C133.351 156.5 133.425 156.524 133.497 156.548C133.98 156.713 134.497 156.974 135.018 157.282C136.064 157.9 137.249 158.783 138.406 159.724C140.727 161.611 143.046 163.822 144.109 164.871C146.096 166.832 147.939 168.038 151.454 169.104C154.424 170.005 156.909 171.845 157.956 172.807C158.553 173.027 159.182 173.141 159.823 173.172C160.467 173.203 161.114 173.149 161.738 173.04C160.519 172.837 159.26 172.499 158.365 171.925C156.882 170.972 155.266 170.074 153.789 169.254C153.097 168.87 152.436 168.503 151.833 168.155L152.833 166.423C153.381 166.739 154.01 167.088 154.682 167.462C156.186 168.297 157.91 169.255 159.446 170.242C160.124 170.678 161.349 170.988 162.751 171.168C163.312 171.24 163.874 171.288 164.398 171.317C164.38 171.292 164.363 171.267 164.347 171.242C163.909 170.601 162.892 169.738 161.389 168.708C159.98 167.741 158.257 166.702 156.446 165.643C155.299 165.609 153.616 165.54 151.99 165.431C150.914 165.36 149.823 165.269 148.923 165.154C148.752 165.658 148.405 166.177 147.898 166.716L146.441 165.346C146.783 164.982 146.933 164.732 146.998 164.59C145.718 163.543 143.842 162.032 142.172 160.738C141.299 160.062 140.49 159.451 139.855 158.998C139.537 158.77 139.271 158.59 139.069 158.462C138.989 158.412 138.93 158.377 138.888 158.353C138.688 158.358 138.44 158.374 138.211 158.412C138.054 158.438 137.935 158.469 137.857 158.498C137.761 158.534 137.806 158.537 137.881 158.452L136.378 157.132C136.62 156.857 136.931 156.709 137.156 156.625C137.247 156.591 137.339 156.562 137.432 156.536C137.296 156.283 137.167 156.032 137.051 155.804C136.878 155.458 136.723 155.138 136.608 154.894C136.416 154.841 136.223 154.775 136.034 154.704C135.623 154.548 135.161 154.338 134.672 154.094C133.694 153.606 132.552 152.953 131.387 152.246C131.047 152.04 130.704 151.829 130.362 151.615C130.381 151.638 130.401 151.662 130.421 151.686C131.848 153.392 132.634 154.674 133.015 155.622C133.136 155.924 133.224 156.21 133.274 156.478ZM138.952 155.13C139.234 155.678 139.527 156.208 139.758 156.55C139.894 156.621 140.024 156.7 140.134 156.769C140.384 156.926 140.685 157.132 141.017 157.37C141.684 157.846 142.517 158.475 143.397 159.157C145.077 160.458 146.957 161.972 148.245 163.026C149.063 163.189 150.521 163.329 152.123 163.436C152.316 163.449 152.509 163.461 152.702 163.473C150.521 162.203 148.461 160.968 146.995 159.896C145.356 158.696 144.132 157.329 143.241 156.028C142.541 155.723 141.505 155.482 140.389 155.311C139.897 155.235 139.408 155.175 138.952 155.13ZM163.096 177.13C163.096 177.131 163.092 177.127 163.086 177.12C163.093 177.127 163.096 177.13 163.096 177.13ZM200.912 177.545C200.912 177.545 200.915 177.544 200.922 177.543C200.916 177.545 200.912 177.545 200.912 177.545ZM101.274 101.016C101.203 101.114 101.142 101.204 101.091 101.281L99.4191 100.184C99.6412 99.8452 100.016 99.3315 100.44 98.8605C100.652 98.6246 100.89 98.3846 101.139 98.1791C101.377 97.9829 101.681 97.771 102.024 97.6531L102.673 99.545L102.673 99.5449C102.673 99.5449 102.667 99.5472 102.654 99.5535C102.64 99.5603 102.621 99.5707 102.597 99.5858C102.547 99.6166 102.486 99.661 102.412 99.7217C102.377 99.7507 102.341 99.782 102.304 99.8155L103.651 99.8215C103.65 100.092 103.605 100.345 103.534 100.577L105.241 100.98C104.921 102.331 103.943 103.322 103.007 103.987C102.057 104.661 101.015 105.098 100.32 105.302L99.7574 103.383C100.272 103.232 101.106 102.884 101.849 102.356C101.938 102.293 102.025 102.228 102.108 102.162L101.274 101.016ZM142.396 150.136C142.537 150.257 142.686 150.384 142.844 150.524C143.897 151.447 145.131 152.207 146.074 152.751C147.073 153.328 148.006 153.446 148.759 153.278C149.508 153.11 150.152 152.645 150.577 151.909C151.059 151.073 151.259 150.252 150.91 149.407C150.537 148.507 149.435 147.31 146.618 146.032L146.597 146.022C145.374 145.432 144.273 145.07 143.36 145.097C142.549 145.121 141.818 145.45 141.211 146.502C140.875 147.084 140.759 147.508 140.74 147.817C140.722 148.111 140.788 148.36 140.929 148.612C141.08 148.882 141.32 149.162 141.662 149.486C141.894 149.706 142.132 149.91 142.396 150.136Z" fill="#222222"/>
</svg>
