<svg width="301" height="300" viewBox="0 0 301 300" fill="none" xmlns="http://www.w3.org/2000/svg">
<path fill-rule="evenodd" clip-rule="evenodd" d="M232.158 35.7668C219.729 37.0062 206.401 38.4263 201.32 39.7198C195.899 41.1001 188.477 40.0573 182.112 38.7988C180.016 38.3843 177.993 37.937 176.175 37.5351C175.22 37.3239 174.322 37.1253 173.499 36.9505C172.292 36.6941 171.246 36.4883 170.393 36.36C169.515 36.2279 168.932 36.1935 168.609 36.2314C164.814 36.6766 140.997 37.775 136.791 37.775C135.901 37.775 134.643 38.0391 133.151 38.499C131.679 38.9525 130.06 39.5707 128.477 40.224C126.895 40.8766 125.366 41.5572 124.072 42.134L123.981 42.1747C122.747 42.7245 121.694 43.1936 121.061 43.423C120.359 43.6776 119.522 43.84 118.648 43.9753C118.177 44.0484 117.645 44.1202 117.099 44.1941C116.659 44.2535 116.21 44.3142 115.774 44.3779C113.733 44.6764 111.534 45.1001 109.462 46.0297C107.582 46.8732 106.511 48.4262 105.792 50.1415C105.432 51.001 105.17 51.8777 104.938 52.7042C104.903 52.8297 104.868 52.9559 104.833 53.0818C104.648 53.7507 104.464 54.4128 104.257 54.9296C103.598 56.574 102.418 58.6684 101.751 59.7812C101.794 60.1547 101.743 60.5223 101.644 60.859C101.499 61.3522 101.238 61.8379 100.927 62.2971C100.305 63.215 99.3767 64.1804 98.3586 65.1012C96.6455 66.6505 94.5571 68.1804 92.8939 69.2922C94.8917 71.6392 97.1864 72.2349 99.2851 72.0637C101.496 71.8834 103.547 70.8395 104.804 69.8815C105.132 69.447 105.736 68.8319 106.421 68.1699C107.221 67.397 108.228 66.4691 109.289 65.5067C110.264 64.6228 111.28 63.7147 112.232 62.8632C113.371 61.8444 114.419 60.9066 115.2 60.1881C115.903 59.5411 116.734 59.0416 117.593 58.6563C117.184 57.8547 116.63 56.8734 115.982 55.9081C115.034 54.4936 113.954 53.2193 112.911 52.542L114 50.8646C115.392 51.768 116.654 53.319 117.643 54.794C118.401 55.9229 119.039 57.0695 119.491 57.9792C121.144 57.5194 122.764 57.3621 123.812 57.3527C124.165 57.197 124.453 57.067 124.677 56.9554C125.536 56.5273 126.388 56.6389 127.11 56.9573C126.864 55.9096 126.636 54.7847 126.472 53.681C126.292 52.475 126.184 51.2638 126.218 50.1918C126.251 49.1542 126.421 48.0955 126.924 47.3135L128.606 48.3957C128.405 48.7086 128.247 49.3149 128.217 50.2559C128.188 51.1625 128.28 52.2436 128.45 53.3867C128.758 55.4567 129.307 57.6304 129.765 59.147C130.798 59.5056 132.009 59.5333 133.194 59.3713C134.525 59.1893 135.713 58.7829 136.372 58.479L136.833 59.4779C139.819 58.13 142.362 58.2417 143.834 58.7329C145.051 58.1359 146.263 57.6612 147.392 57.5193C148.698 57.3551 149.974 57.633 150.959 58.7134C152.435 60.3324 152.901 62.143 152.729 63.7184C154.353 62.8008 155.848 62.0495 156.784 61.6095C157.818 60.7507 158.749 60.032 159.616 59.5445C160.519 59.037 161.449 58.7251 162.436 58.832C163.176 58.9121 164.002 59.3039 164.73 59.7999C165.48 60.3109 166.234 61.0057 166.816 61.8149C167.395 62.6188 167.848 63.5982 167.885 64.6625C167.917 65.6214 167.608 66.5651 166.897 67.4111C166.968 68.3571 166.803 69.2837 166.555 70.0923C166.84 69.9386 167.137 69.7926 167.439 69.6638C167.933 69.4524 168.447 69.4357 168.919 69.5193C170.909 68.3939 173.738 66.599 176.148 64.6545C177.424 63.6248 178.555 62.575 179.38 61.5804C180.226 60.5588 180.646 59.7175 180.705 59.0967L182.696 59.2859C182.579 60.5187 181.84 61.7467 180.919 62.8567C179.977 63.9937 178.734 65.1378 177.404 66.2111C175.332 67.8827 172.982 69.4356 171.067 70.5823C171.355 70.8146 171.622 71.0698 171.862 71.334C172.524 72.0644 173.107 73.015 173.227 73.9716C173.297 74.5289 173.095 75.0909 172.881 75.5339C172.728 75.849 172.531 76.1782 172.304 76.5117C172.61 77.368 172.576 78.5465 172.142 79.9192C171.582 81.6967 170.304 83.9972 167.848 86.8498C168.335 88.4257 169.096 90.6361 169.969 92.6954C170.456 93.8456 170.971 94.9312 171.484 95.8262C172.011 96.7434 172.487 97.3741 172.874 97.6951L171.595 99.2333C170.925 98.6762 170.304 97.7885 169.75 96.8214C169.182 95.832 168.632 94.6674 168.127 93.4759C167.422 91.8115 166.79 90.0605 166.307 88.5979C162.591 92.8036 160.752 94.9137 160.065 95.7131C160.121 96.4697 160.125 97.637 160.105 98.9417C160.08 100.605 160.014 102.601 159.937 104.52C159.86 106.44 159.771 108.287 159.703 109.655C159.678 110.148 159.655 110.579 159.637 110.928C159.678 110.931 159.72 110.934 159.763 110.937C160.441 110.981 161.369 111.036 162.371 111.079C163.582 111.131 164.888 111.164 165.988 111.141C166.539 111.13 167.023 111.104 167.41 111.063C167.825 111.018 168.035 110.964 168.099 110.936C174.091 108.375 179.408 103.976 184.808 99.5084C185.533 98.909 186.259 98.3084 186.988 97.7108C192.714 93.0186 198.647 88.5164 205.493 86.7671C205.292 86.4125 205.076 86.0351 204.848 85.6375C203.746 83.7108 202.371 81.3086 201.082 78.7257C199.203 74.9631 197.424 70.671 196.783 66.5664L198.759 66.2581C199.352 70.0567 201.022 74.1297 202.871 77.8321C204.136 80.3667 205.449 82.6599 206.54 84.5652C206.899 85.1931 207.234 85.7789 207.536 86.3173C208.135 86.1884 208.781 86.0371 209.481 85.8565C209.121 81.2709 208.357 74.8034 207.411 68.6778C206.401 62.1432 205.203 56.1135 204.099 53.15L205.973 52.452C207.159 55.6355 208.382 61.8631 209.387 68.3726C210.318 74.3978 211.076 80.7637 211.45 85.3886C213.328 85.0626 215.881 84.9465 218.785 84.9556C222.384 84.9669 226.632 85.1729 231.024 85.4634C235.419 85.754 239.972 86.1302 244.182 86.4835C244.561 86.5153 244.937 86.5469 245.311 86.5783C249.086 86.8956 252.534 87.1854 255.295 87.3678L255.163 89.3635C252.383 89.1798 248.916 88.8884 245.147 88.5716C244.772 88.5401 244.395 88.5084 244.015 88.4765C239.804 88.1232 235.267 87.7484 230.892 87.459C226.515 87.1696 222.316 86.9667 218.778 86.9556C215.207 86.9444 212.419 87.1309 210.804 87.5738C209.44 87.948 208.255 88.2193 207.213 88.4265C200.35 89.7914 194.375 94.2433 188.256 99.2578C187.537 99.847 186.816 100.444 186.091 101.044C180.721 105.49 175.164 110.092 168.885 112.775C168.527 112.928 168.061 113.004 167.623 113.051C167.157 113.102 166.61 113.129 166.03 113.141C165.19 113.158 164.249 113.145 163.328 113.116V134.196C166.853 133.794 173.287 133.718 180.049 133.786C187.697 133.863 195.898 134.127 201.116 134.347L201.685 134.371L201.954 134.873C202.206 135.341 202.39 136.117 202.55 137.006C202.719 137.944 202.884 139.161 203.045 140.617C203.185 141.876 203.323 143.326 203.46 144.944C207.282 172.001 214.646 226.416 218.261 253.312L218.314 253.702L207.535 268.945H43.7451L43.7706 267.92C44.3211 245.815 45.4001 212.656 46.8482 185.018C47.5722 171.202 48.389 158.752 49.2795 149.751C49.7243 145.255 50.1899 141.592 50.6763 139.043C50.9181 137.776 51.1733 136.738 51.4499 135.999C51.586 135.636 51.7488 135.284 51.9551 135.006C52.139 134.757 52.5245 134.346 53.1359 134.346C57.0487 134.346 81.1805 135.157 94.1214 135.61C93.5699 133.973 93.1005 131.783 92.6929 129.298C92.1365 125.905 91.6771 121.839 91.3036 117.608C90.5564 109.144 90.1483 99.9678 90.0012 94.0986L89.9994 94.0284L90.0075 93.9586C90.9497 85.815 94.8996 78.0651 97.4976 74.0247C95.2334 73.7548 92.9333 72.631 90.9904 70.1194C90.7253 70.1278 90.4352 70.1019 90.1469 70.0155C89.8352 69.9221 89.5026 69.7501 89.2252 69.4521C88.9436 69.1496 88.7662 68.7675 88.6937 68.3333C88.633 67.97 88.7502 67.6636 88.8311 67.4943C88.9216 67.3048 89.0439 67.1291 89.165 66.9762C89.4091 66.668 89.7467 66.3304 90.1274 65.9851C90.8959 65.2879 91.958 64.4537 93.1192 63.5942C95.3704 61.9279 98.0754 60.1069 99.9529 58.8906C100.577 57.8596 101.771 55.7548 102.401 54.185C102.563 53.781 102.71 53.2519 102.897 52.5783C102.934 52.4458 102.972 52.3077 103.013 52.1638C103.249 51.3232 103.537 50.3476 103.948 49.3685C104.77 47.4065 106.12 45.3372 108.643 44.205C110.975 43.1587 113.398 42.7042 115.485 42.399C115.981 42.3264 116.437 42.265 116.87 42.2067C117.385 42.1375 117.866 42.0727 118.342 41.9989C119.195 41.8667 119.871 41.7273 120.38 41.5428C120.942 41.3388 121.944 40.8924 123.258 40.3071C124.55 39.7313 126.103 39.0399 127.714 38.3752C129.323 37.7113 131.006 37.0672 132.561 36.5877C134.096 36.1146 135.59 35.775 136.791 35.775C140.951 35.775 164.685 34.678 168.375 34.245C168.987 34.1733 169.802 34.2486 170.691 34.3823C171.606 34.5199 172.7 34.736 173.915 34.9941C174.768 35.1756 175.682 35.3776 176.644 35.5904C178.447 35.9891 180.422 36.4259 182.5 36.8367C188.904 38.1029 195.901 39.0358 200.827 37.7817C206.093 36.4408 219.623 35.0069 231.96 33.7766C233.75 33.5981 235.517 33.4237 237.233 33.2543C241.46 32.8373 245.379 32.4505 248.58 32.1069C250.831 31.8653 252.715 31.6462 254.095 31.4542C254.786 31.3581 255.338 31.2704 255.741 31.192C255.943 31.1526 256.096 31.1179 256.204 31.0886C256.284 31.0668 256.316 31.0543 256.316 31.0547C256.316 31.0549 256.305 31.0599 256.286 31.0704L257.255 32.8199C257.081 32.9164 256.879 32.9778 256.727 33.019C256.554 33.0658 256.35 33.111 256.123 33.1552C255.668 33.2436 255.075 33.3371 254.37 33.4352C252.959 33.6316 251.049 33.8534 248.794 34.0955C245.583 34.44 241.65 34.8282 237.42 35.2456C235.705 35.4148 233.942 35.5889 232.158 35.7668ZM98.2415 62.4272C96.9356 63.3139 95.5495 64.2836 94.3091 65.2017C93.1643 66.0491 92.1653 66.8367 91.4712 67.4664C91.1814 67.7292 90.9644 67.9471 90.8167 68.1172C90.8511 68.1205 90.8907 68.1218 90.935 68.1201C90.9759 68.1185 91.0151 68.1145 91.0509 68.1092C92.7411 67.0235 95.1372 65.318 97.017 63.6179C97.468 63.21 97.8802 62.8105 98.2415 62.4272ZM99.9166 74.0083C97.5472 77.3718 93.0116 85.5629 92.0023 94.1192C92.1502 99.9614 92.5563 109.055 93.2958 117.432C93.6672 121.639 94.1214 125.651 94.6666 128.974C95.2183 132.338 95.8455 134.874 96.5178 136.215L97.2734 137.722L95.5887 137.663C83.4067 137.234 58.4357 136.389 53.4736 136.348C53.4319 136.43 53.3809 136.545 53.323 136.7C53.107 137.277 52.8768 138.182 52.6408 139.418C52.1718 141.876 51.7132 145.466 51.2698 149.948C50.384 158.902 49.569 171.314 48.8455 185.123C47.4209 212.312 46.3534 244.859 45.7957 266.945H205.996C205.551 245.873 204.735 214.543 203.707 187.722C203.184 174.091 202.606 161.632 201.995 152.277C201.823 149.644 201.648 147.261 201.472 145.168C200.987 141.735 200.559 138.745 200.204 136.311C194.988 136.099 187.258 135.859 180.029 135.786C172.359 135.709 165.384 135.824 162.501 136.331L162.415 136.346H156.324V135.346C156.324 131.617 157.168 118.071 157.587 111.795L157.588 111.79L157.589 111.76L157.596 111.641C157.601 111.537 157.61 111.384 157.62 111.189C157.641 110.797 157.671 110.235 157.705 109.554C157.774 108.191 157.862 106.35 157.939 104.439C158.015 102.527 158.081 100.55 158.106 98.9117C158.108 98.7639 158.11 98.6198 158.111 98.4794C157.854 98.8692 157.598 99.2671 157.353 99.6583C156.931 100.334 156.553 100.977 156.273 101.517C155.971 102.099 155.85 102.439 155.833 102.558C155.784 102.901 155.731 103.559 155.665 104.421L155.657 104.514C155.594 105.335 155.519 106.297 155.425 107.236C155.328 108.204 155.207 109.177 155.049 109.961C154.971 110.351 154.877 110.725 154.761 111.04C154.705 111.191 154.622 111.396 154.491 111.595C154.154 115.413 153.547 121.034 152.787 125.885C152.398 128.374 151.964 130.685 151.499 132.453C151.267 133.334 151.02 134.111 150.754 134.719C150.621 135.023 150.472 135.31 150.303 135.554C150.142 135.786 149.914 136.052 149.597 136.225L149.388 136.338L105.546 137.663H100.484L100.218 137.078C99.2839 135.03 98.5053 131.987 97.8502 128.476C97.1913 124.943 96.6445 120.862 96.1981 116.693C95.3052 108.355 94.8085 99.614 94.6245 94.107L94.623 94.0639L94.6253 94.0208C94.9665 87.5565 97.1623 82.9251 98.4917 81.04C98.3816 78.0458 100.339 76.1976 101.228 75.5972C101.335 75.5248 101.562 75.2886 101.892 74.8136C102.198 74.3735 102.53 73.8248 102.867 73.2357C101.959 73.5956 100.962 73.8763 99.9166 74.0083ZM99.1638 83.8481C98.1063 85.9758 96.8728 89.507 96.6248 94.0835C96.8088 99.5557 97.3025 108.222 98.1868 116.48C98.6301 120.621 99.1703 124.646 99.8163 128.109C100.4 131.238 101.06 133.849 101.788 135.663H104.136C103.583 133.748 103.112 131.034 102.703 127.882C102.178 123.832 101.741 118.941 101.385 113.83C100.681 103.747 100.286 92.7655 100.134 85.6098C99.7311 85.0041 99.4107 84.4165 99.1638 83.8481ZM102.189 87.9148C102.37 94.9707 102.752 104.694 103.38 113.691C103.735 118.783 104.168 123.63 104.687 127.625C105.146 131.167 105.663 133.95 106.221 135.642L148.696 134.358C148.76 134.257 148.836 134.112 148.921 133.917C149.127 133.447 149.344 132.782 149.564 131.944C150.004 130.274 150.425 128.041 150.812 125.576C151.54 120.927 152.128 115.542 152.468 111.764C150.555 110.729 147.324 108.973 146.203 108.334C146.108 108.28 145.979 108.211 145.823 108.126C144.85 107.601 142.801 106.495 141.186 104.943C140.297 104.869 139.155 104.817 137.955 104.762L137.818 104.755C136.422 104.691 134.963 104.622 133.83 104.509C131.496 104.276 127.33 102.751 125.052 97.8539C122.72 98.8437 118.54 99.6752 114.698 97.3434C111.862 95.6218 110.158 92.8401 109.584 90.1581C107.641 90.3253 104.678 89.9649 102.189 87.9148ZM109.365 88.172C109.361 86.3268 109.937 84.5549 111.27 83.4302C112.405 82.472 114.514 79.8926 116.722 77.0295C118.008 75.3621 119.286 73.6549 120.379 72.1897C120.354 72.1843 120.326 72.1785 120.296 72.1721C119.784 72.0644 118.59 71.8133 117.498 71.0868C116.163 70.1997 115.004 68.6478 114.878 66.0208C114.781 63.9894 115.847 62.382 117.198 61.151C116.967 61.3089 116.752 61.4783 116.555 61.6596C115.772 62.38 114.699 63.3396 113.544 64.3726C112.59 65.2257 111.581 66.1288 110.633 66.9884C109.575 67.947 108.587 68.8577 107.811 69.6078C107.001 70.3907 106.51 70.9168 106.362 71.1392C106.101 71.5285 105.767 72.1357 105.374 72.8481C105.139 73.2745 104.883 73.7386 104.61 74.2162C104.261 74.8255 103.893 75.4394 103.534 75.9556C103.197 76.4399 102.791 76.9553 102.348 77.2546C101.725 77.6755 100.299 79.0498 100.509 81.2456C100.598 82.1818 100.986 83.3407 101.948 84.7201C104.104 87.8116 107.413 88.3333 109.365 88.172ZM122.417 69.47C122.778 68.9956 123.073 68.617 123.264 68.3948C123.821 67.7475 124.556 67.2906 125.367 66.8364C125.628 66.6904 125.899 66.5433 126.187 66.3874C126.799 66.0557 127.484 65.6846 128.292 65.2017C128.558 64.8758 128.902 64.3895 129.154 63.8885C129.296 63.6067 129.393 63.3503 129.44 63.1364C129.489 62.916 129.469 62.8088 129.458 62.7776C129.322 62.3702 128.838 61.4169 128.149 60.4962C127.65 59.8291 127.106 59.2649 126.594 58.9434C126.09 58.6262 125.786 58.6374 125.57 58.7453C125.255 58.9022 124.855 59.0791 124.425 59.2682L124.346 59.3029C122.895 59.9417 120.957 60.794 119.39 61.943C117.771 63.1293 116.805 64.439 116.876 65.9254C116.971 67.9087 117.793 68.8815 118.605 69.4213C119.345 69.9131 120.107 70.0808 120.657 70.2018C120.759 70.2243 120.854 70.2451 120.94 70.2661C120.953 70.2654 120.993 70.2624 121.066 70.2428C121.192 70.2093 121.353 70.1439 121.54 70.0463C121.872 69.8736 122.198 69.6449 122.417 69.47ZM131.464 63.0954C132.039 62.6742 132.651 62.2058 133.302 61.6818C133.464 61.5516 133.625 61.4261 133.785 61.305C133.679 61.3222 133.572 61.3381 133.465 61.3529C132.71 61.4561 131.888 61.5016 131.058 61.4341C131.188 61.7027 131.289 61.9444 131.355 62.1436C131.463 62.4656 131.486 62.7911 131.464 63.0954ZM124.357 95.9778C123.683 93.2766 124.769 91.0947 126.236 89.3879C127.035 88.4582 127.969 87.6397 128.822 86.924C129.022 86.7561 129.215 86.5955 129.401 86.441C130.035 85.9148 130.585 85.4588 131.022 85.0232C132.006 84.0416 133.685 82.0639 135.679 79.7162C136.06 79.267 136.453 78.8042 136.855 78.3323C138.637 76.2394 140.577 73.9861 142.399 72.0154C141.885 71.9286 141.358 71.7203 140.928 71.2915C140.82 71.1838 140.644 71.0274 140.388 70.7997L140.36 70.7744C140.101 70.5437 139.786 70.2626 139.453 69.947C138.794 69.3217 138.03 68.5278 137.446 67.6541C136.874 66.7989 136.383 65.7309 136.49 64.5926C136.605 63.3783 137.369 62.3605 138.718 61.5918C139.178 61.3292 139.642 61.0602 140.103 60.7923C140.307 60.6744 140.509 60.5567 140.711 60.4398C139.091 60.6106 136.94 61.3197 134.556 63.2394C132.533 64.8692 130.854 65.9923 129.466 66.8295C128.555 67.3785 127.754 67.8133 127.092 68.172C126.818 68.3207 126.568 68.4563 126.344 68.5816C125.543 69.0297 125.087 69.3423 124.781 69.6985C124.624 69.8813 124.339 70.2465 123.939 70.7737C123.506 71.3433 122.954 72.0836 122.325 72.9265C121.157 74.492 119.724 76.4118 118.306 78.2509C116.145 81.0523 113.895 83.8318 112.56 84.9588C111.692 85.6909 111.213 87.1166 111.407 88.9173C111.666 91.3254 113.11 94.04 115.736 95.6337C118.899 97.554 122.451 96.8155 124.357 95.9778ZM144.588 69.7387C146.149 68.1942 147.705 66.8738 149.661 65.5832C150.666 64.8849 151.612 62.3987 149.481 60.0608C149.043 59.5803 148.482 59.398 147.641 59.5037C146.749 59.6159 145.649 60.0476 144.339 60.7168C143.333 61.2302 142.278 61.8427 141.159 62.4921C140.687 62.7662 140.204 63.0469 139.708 63.3295C138.745 63.8779 138.518 64.3969 138.481 64.7811C138.438 65.2413 138.634 65.8335 139.108 66.5425C139.57 67.2329 140.209 67.9072 140.83 68.4962C141.137 68.7878 141.431 69.0503 141.689 69.2801L141.747 69.3318C141.973 69.5325 142.19 69.7253 142.34 69.8753C142.459 69.9938 142.753 70.1094 143.328 70.0544C143.786 70.0106 144.257 69.871 144.588 69.7387ZM151.031 67.0765C150.944 67.1331 150.857 67.19 150.771 67.247C148.886 68.4897 147.398 69.7608 145.863 71.2915C143.584 73.5634 140.858 76.7162 138.378 79.6289C137.986 80.0893 137.599 80.5447 137.221 80.9901C135.234 83.3304 133.483 85.3932 132.434 86.4394C131.926 86.9462 131.279 87.4827 130.631 88.02C130.455 88.1655 130.28 88.311 130.107 88.456C129.268 89.1604 128.44 89.8923 127.753 90.6915C126.401 92.2642 125.685 93.971 126.5 96.1366C128.317 100.97 132.113 102.328 134.028 102.519C135.097 102.625 136.499 102.692 137.91 102.757L138.082 102.765C138.565 102.787 139.047 102.81 139.512 102.834C139.239 102.346 139.022 101.822 138.887 101.263C138.555 99.8824 138.751 98.3889 139.677 96.851C142.993 91.3394 146.785 86.2075 148.853 84.145C150.867 82.1366 155.963 77.7194 157.495 76.4092C157.804 76.1458 158.207 75.7599 158.697 75.2908L158.742 75.2474C159.242 74.7692 159.813 74.2241 160.403 73.7023C160.99 73.1822 161.616 72.6679 162.231 72.2545C162.701 71.9385 163.215 71.6463 163.736 71.4722C163.987 71.0788 164.296 70.4993 164.535 69.8298C164.536 69.8264 164.537 69.8229 164.539 69.8195C164.024 70.3086 163.469 70.8138 162.901 71.2996C161.469 72.5232 159.805 73.7546 158.439 74.1738C156.608 74.7355 154.917 74.0822 153.744 73.313C153.148 72.9222 152.648 72.4779 152.275 72.0786C152.089 71.8788 151.927 71.6823 151.798 71.5004C151.694 71.3547 151.576 71.1695 151.499 70.9721C151.492 70.9624 151.482 70.9493 151.469 70.9328C151.464 70.9271 151.449 70.9082 151.427 70.8816C151.364 70.8046 151.248 70.6627 151.188 70.5859C150.953 70.2804 150.64 69.8062 150.55 69.1562C150.459 68.4995 150.608 67.8142 151.031 67.0765ZM158.021 78.5943C155.98 80.3557 151.959 83.8726 150.266 85.5612C148.371 87.4504 144.679 92.417 141.39 97.8821C140.717 99.0017 140.631 99.9598 140.832 100.794C141.041 101.664 141.588 102.499 142.35 103.281C143.76 104.727 145.658 105.759 146.726 106.34C146.908 106.438 147.066 106.524 147.193 106.596C148.223 107.183 151.104 108.751 153.039 109.799C153.055 109.726 153.072 109.648 153.089 109.566C153.227 108.882 153.34 107.988 153.435 107.036C153.527 106.122 153.6 105.18 153.664 104.354L153.671 104.266C153.734 103.441 153.792 102.699 153.853 102.274C153.924 101.778 154.204 101.161 154.497 100.597C154.812 99.9898 155.221 99.2963 155.657 98.5984C156.53 97.2007 157.545 95.7328 158.215 94.8054L158.236 94.7767L158.258 94.7495C158.636 94.2971 160.702 91.9139 165.982 85.9468C168.568 83.0242 169.759 80.8254 170.235 79.3174C170.292 79.1382 170.338 78.9712 170.374 78.8159C169.743 79.4617 169.052 80.0946 168.353 80.6632C167.039 81.7311 165.556 82.6877 164.313 82.9737C162.41 83.4117 160.92 82.5017 159.943 81.5273C158.971 80.558 158.362 79.3947 158.132 78.9348C158.073 78.8182 158.039 78.7029 158.021 78.5943ZM159.517 112.925C159.115 119.028 158.444 129.938 158.338 134.346H161.328V113.032C160.682 112.998 160.099 112.963 159.633 112.932C159.593 112.93 159.555 112.927 159.517 112.925ZM204.981 170.401C205.232 175.811 205.474 181.615 205.705 187.645C206.702 213.641 207.499 243.863 207.953 264.89L216.227 253.189C213.525 233.095 208.793 198.098 204.981 170.401ZM53.5783 136.177C53.5783 136.177 53.5753 136.181 53.5692 136.187C53.5752 136.179 53.5783 136.176 53.5783 136.177ZM160.596 61.288C159.875 61.6931 159.035 62.3367 157.964 63.2288C157.468 63.6424 156.958 64.079 156.402 64.5546C155.856 65.0207 155.268 65.5243 154.605 66.0803C152.557 67.8005 152.498 68.6378 152.531 68.8822C152.552 69.028 152.623 69.1712 152.774 69.3665C152.833 69.4438 152.864 69.4804 152.9 69.5235C152.933 69.5625 152.97 69.6068 153.037 69.6912C153.111 69.7855 153.268 69.9841 153.359 70.2358C153.364 70.2437 153.383 70.2785 153.429 70.343C153.497 70.4398 153.6 70.5674 153.737 70.7141C154.011 71.0077 154.391 71.3455 154.841 71.6408C155.76 72.2436 156.82 72.5783 157.852 72.2618C158.775 71.9785 160.156 71.0145 161.601 69.7793C163.004 68.5805 164.329 67.2483 165.114 66.3941L165.132 66.3747L165.151 66.3563C165.734 65.7846 165.903 65.2347 165.886 64.7306C165.867 64.1879 165.627 63.5859 165.193 62.9833C164.763 62.3861 164.186 61.8493 163.604 61.4528C163 61.0414 162.494 60.85 162.22 60.8204C161.809 60.7758 161.309 60.8873 160.596 61.288ZM129.799 74.7863C128.62 73.2686 127.537 71.547 126.896 70.4188L128.635 69.4307C129.241 70.4979 130.272 72.1351 131.378 73.5592C131.932 74.2719 132.488 74.91 133.006 75.3923C133.548 75.8974 133.95 76.1388 134.192 76.2044L133.667 78.1343C132.94 77.9366 132.243 77.415 131.642 76.8554C131.017 76.273 130.388 75.5444 129.799 74.7863ZM168.765 71.537C168.465 71.4422 168.299 71.4711 168.225 71.5029C167.109 71.9795 166.003 72.7808 165.609 73.1087L165.606 73.1109C164.554 73.9792 163.002 75.3214 161.765 76.5251C161.142 77.1309 160.624 77.6772 160.29 78.0983C160.205 78.2052 160.14 78.2944 160.091 78.3667C160.349 78.8401 160.777 79.5346 161.355 80.1111C162.084 80.8381 162.906 81.2453 163.865 81.0247C164.633 80.8479 165.815 80.1488 167.091 79.1112C168.334 78.1006 169.534 76.8791 170.337 75.8213C170.677 75.3736 170.927 74.9796 171.081 74.6621C171.212 74.3908 171.234 74.2545 171.24 74.2222C171.241 74.2125 171.241 74.2122 171.242 74.2203C171.194 73.8369 170.904 73.2558 170.38 72.6772C169.865 72.1088 169.257 71.6924 168.765 71.537ZM128.779 77.09C128.205 76.4443 127.307 75.1905 126.944 74.666L128.587 73.5259C128.957 74.059 129.791 75.2181 130.274 75.7618L128.779 77.09ZM147.835 79.7075C146.904 78.9645 145.177 77.2849 144.45 76.5603L145.863 75.1442C146.604 75.8832 148.253 77.482 149.082 78.144L147.835 79.7075ZM145.087 80.6017C143.912 79.413 142.66 77.9988 141.878 77.0702L143.407 75.7817C144.166 76.6825 145.382 78.055 146.509 79.1956C147.075 79.7681 147.601 80.264 148.027 80.6102C148.241 80.7846 148.408 80.9031 148.526 80.9728C148.687 81.0674 148.636 80.9992 148.459 80.9992V82.9992C148.061 82.9992 147.712 82.814 147.512 82.6967C147.271 82.5546 147.016 82.3663 146.764 82.1611C146.257 81.7482 145.673 81.1938 145.087 80.6017Z" fill="#222222"/>
</svg>
