<svg width="301" height="300" viewBox="0 0 301 300" fill="none" xmlns="http://www.w3.org/2000/svg">
<path fill-rule="evenodd" clip-rule="evenodd" d="M206.451 19.8058C212.111 22.8816 216.892 27.9303 218.427 34.1914C219.213 37.3953 218.753 40.9048 217.66 44.3528C216.564 47.8088 214.806 51.2828 212.898 54.4591C209.976 59.3247 206.613 63.6218 204.678 66.0942C204.1 66.8333 203.649 67.4094 203.376 67.7888C202.216 69.3997 200.395 70.4926 198.693 71.2095C196.977 71.9326 195.265 72.3228 194.184 72.4627L194.128 72.4699L194.071 72.4708C193.026 72.4876 190.669 72.3381 188.535 71.6352C188.095 72.6631 187.171 73.8359 185.454 74.3659C184.607 74.6271 184.152 74.9914 183.915 75.2753C183.88 75.3172 183.85 75.3575 183.823 75.3959C186.413 77.231 188.64 79.3064 190.07 81.6098L190.387 82.1209L190.084 82.6407C189.398 83.8194 188.613 85.1681 187.764 86.6278C182.564 95.5717 175.009 108.622 173.014 112.267C173.581 112.949 174.132 113.602 174.629 114.189C174.886 114.493 175.129 114.78 175.351 115.045C175.466 115.182 175.575 115.313 175.678 115.437C176.406 116.313 176.772 117.298 176.906 118.266C177.201 120.408 176.371 122.511 175.778 123.553C175.7 123.69 175.614 123.988 175.571 124.554C175.53 125.098 175.534 125.762 175.546 126.557C175.548 126.645 175.549 126.735 175.551 126.826C175.575 128.338 175.605 130.206 175.318 132.126C175.188 132.996 175.183 134.116 175.237 135.431C175.268 136.17 175.313 136.919 175.361 137.698C175.399 138.33 175.439 138.981 175.473 139.662C175.617 142.575 175.639 145.788 174.68 148.244C174.295 149.231 174.016 150.721 173.812 152.552C173.61 154.363 173.491 156.427 173.394 158.521C173.361 159.228 173.331 159.942 173.302 160.652C173.158 164.076 173.019 167.404 172.601 169.417C172.116 171.751 171.797 173.365 171.751 175.25C171.705 177.134 171.932 179.333 172.603 182.793C173.3 186.387 173.685 194.48 173.83 203.33C173.975 212.217 173.879 221.982 173.588 228.987C173.128 240.059 176.221 269.781 177.836 283.323L175.85 283.559C174.242 270.079 171.121 240.173 171.589 228.904C171.878 221.945 171.975 212.22 171.83 203.362C171.685 194.467 171.297 186.561 170.64 183.173C169.957 179.651 169.701 177.293 169.751 175.201C169.802 173.111 170.16 171.331 170.642 169.01C171.024 167.175 171.155 164.07 171.3 160.642C171.33 159.915 171.362 159.175 171.396 158.429C171.493 156.328 171.615 154.21 171.824 152.331C172.031 150.471 172.332 148.761 172.817 147.517C173.599 145.513 173.621 142.714 173.475 139.761C173.445 139.14 173.406 138.498 173.367 137.862C173.318 137.05 173.269 136.248 173.239 135.513C173.184 134.18 173.18 132.9 173.34 131.83C173.602 130.079 173.575 128.361 173.55 126.827C173.549 126.747 173.548 126.667 173.547 126.588C173.535 125.807 173.527 125.053 173.577 124.403C173.624 123.776 173.732 123.104 174.04 122.562C174.234 122.222 174.451 121.749 174.626 121.206C174.073 121.68 173.444 122.133 172.802 122.419L171.988 120.593C172.528 120.352 173.161 119.863 173.766 119.288C174.193 118.882 174.571 118.466 174.848 118.135C174.83 118.061 174.81 117.987 174.788 117.914C174.549 118.323 174.249 118.736 173.877 119.109L172.461 117.697C173.007 117.149 173.333 116.431 173.491 115.942C173.37 115.798 173.243 115.648 173.112 115.492C172.488 114.755 171.765 113.9 171.042 113.02C170.284 112.098 169.515 111.134 168.84 110.227C168.565 110.797 168.093 111.304 167.323 111.585L167.306 111.591C166.294 111.96 164.739 112.527 163.179 111.762C161.635 111.004 160.423 109.123 159.443 105.683C159.077 104.401 158.822 103.265 158.663 102.259C157.903 103.119 157.15 104.526 157.15 106.573C157.15 108.91 157.151 111.376 157.41 113.711C157.669 116.052 158.18 118.173 159.143 119.842C159.459 120.389 159.811 120.837 160.177 121.205C161.556 122.59 163.172 122.871 163.83 122.835L163.941 124.832C163.155 124.875 161.913 124.686 160.631 124.007C160.675 124.737 160.711 125.526 160.728 126.305C160.763 127.931 160.722 129.68 160.43 130.702C160.352 130.974 160.26 131.302 160.158 131.67C159.868 132.711 159.489 134.067 159.09 135.334C158.818 136.193 158.53 137.036 158.241 137.735C158.097 138.085 157.947 138.412 157.794 138.695C157.647 138.965 157.466 139.251 157.245 139.472C157.246 139.471 157.246 139.471 157.244 139.473C157.238 139.48 157.216 139.505 157.174 139.558C157.124 139.621 157.059 139.708 156.979 139.818C156.819 140.039 156.612 140.339 156.364 140.712C155.869 141.457 155.223 142.477 154.49 143.705C153.022 146.16 151.212 149.428 149.558 152.96C149.486 153.112 149.408 153.279 149.323 153.459C148.283 155.666 146.304 159.863 145.163 164.004C144.544 166.248 144.196 168.394 144.337 170.152C144.477 171.897 145.079 173.109 146.216 173.784L145.197 175.504C143.297 174.378 142.513 172.426 142.343 170.313C142.175 168.213 142.592 165.806 143.235 163.473C143.532 162.396 143.882 161.317 144.257 160.271C142.47 162.738 140.584 165.357 138.816 167.836C136.97 170.424 135.255 172.858 133.915 174.807C132.659 176.634 131.768 177.986 131.393 178.65C131.321 179.2 131.279 180.032 131.37 180.873C131.473 181.833 131.732 182.631 132.144 183.095C132.616 183.628 133.147 184.318 133.667 185.149C135.045 184.996 137.49 184.659 139.675 184.143C140.447 183.961 141.436 183.651 142.615 183.281L142.645 183.271C143.822 182.902 145.16 182.483 146.564 182.113C149.347 181.379 152.509 180.799 155.33 181.218L155.036 183.196C152.636 182.84 149.803 183.327 147.074 184.047C145.721 184.404 144.424 184.809 143.244 185.18L143.154 185.208C142.024 185.562 140.978 185.891 140.134 186.09C138.233 186.538 136.163 186.856 134.693 187.041C135.278 188.299 135.775 189.761 136.046 191.393C138.046 191.119 141.523 190.27 144.376 188.358C148.15 185.83 153.374 185.003 155.519 184.893L155.621 186.891C153.639 186.992 148.833 187.78 145.49 190.02C142.295 192.16 138.475 193.086 136.25 193.383C136.259 193.599 136.263 193.817 136.263 194.037C136.263 198.91 135.682 212.53 134.902 218.791C134.129 224.988 131.23 251.736 130.652 258.892C130.266 263.668 129.45 267.968 128.443 273.272C127.926 275.997 127.358 278.988 126.773 282.444L124.801 282.11C125.405 278.542 125.982 275.505 126.502 272.766C127.494 267.542 128.28 263.402 128.658 258.731C129.24 251.536 132.143 224.757 132.917 218.543C133.684 212.392 134.263 198.861 134.263 194.037C134.263 193.541 134.237 193.058 134.189 192.588C133.948 190.245 133.151 188.243 132.269 186.707C131.716 185.743 131.134 184.971 130.647 184.422C129.945 183.63 129.608 182.57 129.449 181.595C124.468 189.287 112.38 208.965 106.141 219.188L105.742 219.842L105.007 219.627C93.5479 216.275 85.559 206.969 82.966 202.702L82.1794 201.407L83.6325 201.199C83.6439 201.191 83.7455 201.141 83.9537 200.96C84.2194 200.729 84.5583 200.375 84.9689 199.89C85.7871 198.922 86.8133 197.524 88.0027 195.775C90.3776 192.285 93.3458 187.484 96.5078 182.153C102.712 171.693 109.63 159.246 114.208 150.789C114.125 150.572 114.059 150.33 114.004 150.09C113.893 149.601 113.811 149.026 113.749 148.477C113.654 147.626 113.602 146.775 113.581 146.285C113.575 146.276 113.57 146.268 113.565 146.259C113.481 146.126 113.39 145.968 113.298 145.791C113.112 145.435 112.903 144.978 112.702 144.45C112.303 143.399 111.916 142.02 111.831 140.57C111.719 138.655 112.349 137.248 112.87 136.155L112.875 136.143C113.426 134.985 113.71 134.389 113.586 133.708C113.363 132.478 113.883 131.316 114.442 130.471C114.894 129.788 115.446 129.199 115.914 128.78C115.962 128.239 116.081 127.645 116.228 127.045C116.422 126.247 116.683 125.362 116.948 124.47L116.959 124.432C117.495 122.623 118.039 120.79 118.219 119.256C118.515 116.725 120.067 115.049 121.232 114.229C121.156 113.759 121.113 113.274 121.113 112.779C121.113 112.558 121.117 112.349 121.127 112.149C121.166 111.335 121.286 110.678 121.506 110.097C121.834 109.233 122.364 108.617 122.893 108.001C122.954 107.93 123.015 107.859 123.076 107.788C123.68 107.079 124.421 106.162 125.294 104.546C127.148 101.114 129.678 99.5056 131.285 98.9727C131.597 97.8046 132.248 96.4052 133.356 94.7384C134.06 91.4882 136.599 89.8361 139.239 89.0833C141.617 88.4052 144.23 88.3981 146.139 88.6188L159.523 65.0827L160.257 65.2638C162.57 65.8339 165.678 66.7578 169.035 67.9945C169.233 67.8685 169.454 67.6933 169.64 67.4766C169.929 67.1407 170.089 66.7653 170.046 66.3339C169.947 65.3405 169.923 64.1773 170.271 63.2247C170.385 62.9136 170.545 62.6071 170.767 62.3337C170.242 62.0324 169.695 61.6931 169.181 61.3322C168.599 60.9237 168.03 60.4685 167.576 59.9901C167.182 59.5754 166.793 59.0599 166.625 58.4712C165.074 55.7791 165.018 52.5507 165.485 49.6173C165.962 46.6189 167.012 43.7712 167.792 41.8164C168.587 39.8221 171.038 34.5176 174.617 29.306C178.163 24.1418 182.973 18.8373 188.549 17.1805C194.09 15.5342 200.796 16.7335 206.451 19.8058ZM169.571 59.1183C169.799 59.3086 170.055 59.5021 170.33 59.6951C171.375 60.4283 172.596 61.0787 173.395 61.4485L172.975 63.356C172.665 63.356 172.509 63.4307 172.424 63.4936C172.333 63.5609 172.234 63.6814 172.15 63.9115C171.966 64.4134 171.942 65.1896 172.036 66.1355C172.148 67.2556 171.696 68.1544 171.156 68.7812C171.151 68.7873 171.146 68.7934 171.14 68.7994C174.86 70.2751 178.768 72.1173 182.162 74.2805C182.653 73.5631 183.517 72.8703 184.864 72.4548C186.383 71.9862 186.83 70.712 186.87 70.2246L186.987 68.8145L188.277 69.3956C189.328 69.8689 190.583 70.1481 191.692 70.303C189.719 68.2555 186.386 65.2967 182.143 62.833C177.634 60.215 172.65 59.3157 169.571 59.1183ZM194.47 70.3941C195.389 70.228 196.653 69.899 197.917 69.3665C199.468 68.7129 200.902 67.8018 201.753 66.62C202.073 66.1761 202.568 65.5424 203.189 64.7487C205.144 62.249 208.34 58.1634 211.184 53.4293C213.047 50.327 214.722 47.0011 215.753 43.7482C216.787 40.4873 217.149 37.3788 216.485 34.6677C215.119 29.0988 210.81 24.4508 205.496 21.5631C200.175 18.672 194.021 17.641 189.118 19.0977C184.251 20.5438 179.778 25.3239 176.265 30.4382C172.786 35.5051 170.401 40.673 169.649 42.5574C168.882 44.4813 167.901 47.1607 167.46 49.9318C167.05 52.5054 167.127 55.0259 168.144 57.0739C171.189 57.0555 177.49 57.8189 183.147 61.1033C188.689 64.321 192.758 68.3493 194.47 70.3941ZM145.278 90.5446C143.644 90.4174 141.608 90.4876 139.787 91.0066C138.508 91.3715 137.395 91.9349 136.583 92.767C136.775 92.7499 136.971 92.7541 137.169 92.787C137.497 92.8419 137.903 92.9334 138.286 93.1147C138.676 93.2986 139.1 93.6033 139.365 94.1103C139.904 95.1429 139.512 96.4108 138.619 97.8039L138.514 97.9675C137.747 99.1648 137.037 100.273 136.402 101.156C135.998 101.716 135.581 102.252 135.157 102.671C135.221 102.747 135.294 102.82 135.379 102.884C135.628 103.072 136.046 103.247 136.778 103.078C137.334 102.949 138.141 102.359 139.068 101.27C140.706 99.347 142.229 96.4529 142.813 94.4616L142.863 94.2927L142.967 94.1509C143.406 93.5539 144.075 92.5889 144.65 91.6474C144.888 91.2584 145.103 90.8827 145.278 90.5446ZM133.332 103.551C132.751 103.519 132.178 103.218 131.773 102.747C131.429 102.345 131.2 101.832 131.106 101.223C129.962 101.827 128.349 103.098 127.054 105.497C126.172 107.129 125.396 108.134 124.765 108.888C124.896 108.955 125.023 109.045 125.141 109.164L124.514 109.789C124.781 109.773 125.057 109.8 125.331 109.891L124.696 111.788C124.696 111.788 124.64 111.773 124.494 111.809C124.342 111.847 124.152 111.927 123.934 112.052C123.635 112.223 123.344 112.443 123.113 112.643C123.113 112.687 123.113 112.733 123.113 112.779C123.113 113.354 123.189 113.927 123.322 114.487C123.59 115.612 124.076 116.648 124.574 117.477C124.673 117.302 124.786 117.13 124.917 116.963C125.7 115.963 126.99 115.27 128.881 115.27C130.31 115.27 131.27 116.245 131.876 117.28C132.489 118.326 132.886 119.661 133.151 120.91C133.42 122.176 133.568 123.431 133.65 124.364C133.656 124.432 133.662 124.499 133.667 124.564C133.924 124.312 134.255 123.945 134.667 123.414C135.499 122.341 135.734 120.424 135.539 118.195C135.352 116.059 134.795 113.908 134.336 112.575C134.089 112.054 133.688 111.291 133.266 110.644C133.047 110.309 132.841 110.034 132.664 109.844C132.532 109.702 132.467 109.664 132.468 109.663C132.469 109.661 132.497 109.676 132.553 109.687L132.946 107.726C133.474 107.832 133.882 108.217 134.128 108.481C134.415 108.789 134.692 109.17 134.94 109.551C135.092 109.784 135.24 110.027 135.38 110.269C135.937 109.315 136.506 108.099 137.037 106.808C137.309 106.147 137.566 105.48 137.8 104.84C137.612 104.919 137.421 104.982 137.229 105.026C135.951 105.322 134.918 105.044 134.171 104.478C133.81 104.204 133.534 103.878 133.332 103.551ZM140.728 102.403C140.336 103.698 139.676 105.652 138.887 107.569C138.165 109.324 137.295 111.151 136.382 112.393C136.845 113.848 137.348 115.927 137.531 118.02C137.732 120.313 137.58 122.921 136.247 124.64C135.151 126.053 134.32 126.752 133.614 126.99C133.563 127.16 133.495 127.342 133.402 127.528C132.957 128.421 132.036 129.24 130.377 129.477C130.14 129.511 129.903 129.519 129.669 129.496C129.695 129.591 129.721 129.686 129.748 129.782C130.052 130.872 130.398 131.876 130.723 132.463C131.303 133.51 132.032 136.015 131.984 138.591C131.938 141.033 131.177 143.829 128.6 145.401C128.565 145.621 128.517 145.836 128.452 146.038C128.336 146.397 128.139 146.799 127.782 147.097C127.046 147.712 126.142 148.071 125.3 148.192C124.932 148.245 124.536 148.257 124.148 148.205C123.556 149.664 122.096 151.391 119.206 151.754C118.434 152.284 117.548 152.425 116.793 152.369C116.439 152.343 116.079 152.27 115.743 152.154C111.158 160.614 104.35 172.852 98.228 183.173C95.0595 188.515 92.0664 193.358 89.6563 196.9C88.4533 198.669 87.3812 200.134 86.4961 201.181C86.3494 201.354 86.2057 201.519 86.0654 201.673C88.8462 202.425 92.3974 203.804 95.7987 205.953C99.6203 208.366 103.314 211.792 105.47 216.45C112.962 204.189 126.8 181.698 129.578 177.799C129.982 177.054 130.971 175.558 132.267 173.674C133.616 171.711 135.339 169.267 137.188 166.674C140.861 161.525 145.038 155.776 147.788 152.023C149.466 148.452 151.291 145.158 152.773 142.679C153.52 141.428 154.183 140.381 154.698 139.605C154.955 139.218 155.179 138.894 155.359 138.645C155.525 138.416 155.693 138.196 155.829 138.06C155.849 138.039 155.922 137.949 156.037 137.739C156.145 137.541 156.264 137.284 156.392 136.973C156.649 136.351 156.918 135.569 157.182 134.732C157.571 133.501 157.933 132.202 158.222 131.166C158.328 130.787 158.423 130.444 158.507 130.152C158.703 129.467 158.764 128.022 158.728 126.348C158.697 124.894 158.597 123.395 158.504 122.347C158.112 121.915 157.742 121.416 157.411 120.842C156.248 118.827 155.694 116.391 155.422 113.931C155.15 111.476 155.15 108.91 155.15 106.599V106.573C155.15 102.948 157.036 100.739 158.458 99.7948C158.469 98.5204 158.703 97.5024 159.144 96.7094C159.668 95.7657 160.437 95.2292 161.248 94.9582L161.892 94.743L162.329 95.2617C163.786 96.9881 167.084 101.569 168.69 106.221C168.709 106.267 168.727 106.315 168.746 106.365C168.959 106.87 169.429 107.628 170.102 108.564C170.564 109.206 171.095 109.897 171.653 110.596C174.074 106.249 180.794 94.6404 185.653 86.2803C181.784 82.4249 176.425 79.2129 171.176 76.7421C166.103 74.3538 161.202 72.6896 157.993 71.8185L147.624 90.0526C147.536 90.4333 147.362 90.8419 147.181 91.2126C146.953 91.6791 146.662 92.1897 146.357 92.6897C145.789 93.6197 145.142 94.56 144.681 95.195C144.003 97.3883 142.445 100.33 140.728 102.403ZM159.013 70.0254C162.324 70.957 167.099 72.6121 172.028 74.9326C177.207 77.3705 182.624 80.5746 186.69 84.4965C187.169 83.6723 187.624 82.8921 188.045 82.1679C186.689 80.2011 184.607 78.3388 182.083 76.6222C178.145 73.945 173.261 71.7082 168.757 70.0246C165.657 68.8654 162.759 67.9766 160.511 67.3913L159.013 70.0254ZM166.884 107.094C166.858 107.033 166.835 106.973 166.813 106.914L166.811 106.906L166.808 106.898C165.477 103.029 162.835 99.127 161.303 97.1716C161.149 97.301 161.011 97.4668 160.892 97.681C160.623 98.1656 160.409 98.9772 160.467 100.324C160.519 101.52 160.783 103.09 161.366 105.135C162.32 108.483 163.332 109.609 164.06 109.966C164.764 110.311 165.522 110.113 166.637 109.706C166.958 109.589 167.148 109.334 167.175 108.743C167.201 108.191 167.053 107.555 166.884 107.094ZM103.533 217.033C101.57 212.955 98.2669 209.877 94.7307 207.644C91.7424 205.756 88.6298 204.499 86.1208 203.766C89.2279 207.877 95.3584 214.008 103.533 217.033ZM120.542 149.31C121.677 148.745 122.197 147.833 122.389 147.196C122.348 147.14 122.311 147.085 122.277 147.034C122.114 146.788 121.94 146.487 121.765 146.157C121.412 145.494 121.019 144.655 120.638 143.767C120.52 143.492 120.402 143.211 120.286 142.926C120.327 143.095 120.362 143.27 120.392 143.45C120.593 144.663 120.746 146.283 120.695 147.746C120.676 148.281 120.629 148.814 120.542 149.31ZM119.758 141.572C119.389 140.582 119.073 139.623 118.878 138.852C118.583 138.483 118.319 137.997 118.089 137.508C117.791 136.875 117.497 136.118 117.226 135.326C116.8 134.075 116.417 132.686 116.172 131.483C116.151 131.514 116.13 131.544 116.11 131.575C115.657 132.259 115.468 132.875 115.554 133.351C115.797 134.69 115.235 135.854 114.785 136.786C114.747 136.864 114.711 136.94 114.675 137.014C114.18 138.054 113.747 139.072 113.828 140.453C113.861 141.023 113.953 141.59 114.079 142.128C114.176 141.878 114.293 141.634 114.435 141.41C114.736 140.934 115.206 140.466 115.9 140.311C116.841 140.101 117.893 140.032 118.79 140.579C119.194 140.826 119.511 141.163 119.758 141.572ZM118.048 130.646C118.259 131.824 118.657 133.326 119.119 134.68C119.2 134.917 119.283 135.149 119.366 135.371C119.772 134.38 120.524 133.285 121.869 132.948C123.246 132.603 124.584 132.75 125.675 133.546C126.744 134.325 127.415 135.61 127.735 137.213C127.947 138.276 128.215 139.645 128.412 141.003C128.498 141.598 128.572 142.204 128.622 142.791C129.574 141.688 129.954 140.173 129.984 138.553C130.026 136.281 129.361 134.132 128.974 133.433C128.525 132.624 128.129 131.421 127.822 130.32C127.534 129.29 127.302 128.269 127.162 127.574C126.31 126.172 125.413 123.816 124.14 120.285C123.453 119.507 122.463 118.085 121.805 116.34C121.112 117.002 120.373 118.059 120.205 119.489C120.005 121.196 119.42 123.168 118.905 124.902L118.865 125.039C118.713 125.551 118.568 126.042 118.438 126.506V127.097C118.458 127.081 118.477 127.065 118.497 127.05C118.773 126.833 119.238 126.518 119.792 126.518V128.518C119.869 128.518 119.91 128.503 119.91 128.503C119.91 128.504 119.854 128.527 119.733 128.622C119.553 128.764 119.332 128.984 119.089 129.264C118.707 129.704 118.33 130.223 118.048 130.646ZM118.667 127.891C118.677 127.884 118.682 127.882 118.682 127.882C118.682 127.883 118.677 127.886 118.667 127.891ZM126.01 119.575C127.371 123.352 128.212 125.51 128.949 126.66C129.248 127.126 129.474 127.332 129.629 127.424C129.752 127.497 129.879 127.528 130.093 127.498C131.142 127.347 131.478 126.906 131.613 126.635C131.694 126.472 131.73 126.311 131.744 126.189C131.751 126.13 131.752 126.084 131.752 126.059C131.752 126.052 131.752 126.046 131.752 126.043L131.75 126.024L131.75 125.992L131.749 125.988L131.749 125.97L131.746 125.895C131.744 125.829 131.74 125.729 131.733 125.602C131.72 125.347 131.697 124.98 131.658 124.539C131.58 123.653 131.441 122.484 131.195 121.326C130.946 120.151 130.602 119.062 130.15 118.29C129.691 117.507 129.263 117.27 128.881 117.27C127.524 117.27 126.848 117.74 126.493 118.195C126.142 118.642 126.017 119.186 126.01 119.575ZM120.793 138.267C121.08 139.448 121.757 141.304 122.475 142.977C122.843 143.835 123.212 144.62 123.53 145.217C123.69 145.517 123.829 145.756 123.944 145.928C124.029 146.057 124.076 146.112 124.087 146.125C124.195 146.191 124.504 146.286 125.017 146.212C125.522 146.14 126.062 145.922 126.484 145.575C126.492 145.562 126.518 145.518 126.549 145.423C126.601 145.263 126.644 145.027 126.667 144.706C126.731 143.828 126.623 142.606 126.432 141.29C126.244 139.99 125.985 138.666 125.773 137.604C125.513 136.298 125.024 135.546 124.497 135.162C123.992 134.794 123.299 134.651 122.356 134.888C121.892 135.004 121.489 135.427 121.188 136.2C120.914 136.904 120.806 137.711 120.793 138.267ZM135.069 95.7739C133.806 97.6605 133.275 99.0258 133.114 99.9559C132.951 100.899 133.176 101.31 133.291 101.444C133.34 101.501 133.379 101.528 133.404 101.54C133.68 101.37 134.13 100.889 134.778 99.9878C135.381 99.1497 136.065 98.0828 136.848 96.8612L136.936 96.7245C137.337 96.099 137.514 95.6637 137.579 95.3793C137.61 95.2416 137.612 95.1534 137.607 95.1039C137.603 95.0576 137.594 95.0397 137.592 95.0363C137.591 95.0332 137.567 94.9866 137.432 94.9229C137.29 94.8557 137.091 94.8018 136.839 94.7597C136.744 94.7437 136.462 94.7898 136.005 95.0603C135.633 95.2807 135.287 95.5656 135.069 95.7739ZM117.748 142.286C117.533 142.155 117.134 142.085 116.335 142.263C116.33 142.264 116.251 142.281 116.124 142.481C115.992 142.689 115.869 143.007 115.771 143.425C115.578 144.255 115.54 145.244 115.569 145.896L115.57 145.911L115.57 145.926C115.574 146.185 115.621 147.22 115.737 148.254C115.795 148.772 115.868 149.264 115.955 149.648C115.998 149.84 116.041 149.984 116.078 150.08C116.083 150.094 116.089 150.107 116.093 150.117C116.21 150.199 116.508 150.342 116.941 150.375C117.405 150.409 117.851 150.301 118.184 150.023C118.232 149.982 118.37 149.805 118.491 149.336C118.605 148.897 118.673 148.328 118.696 147.676C118.741 146.376 118.604 144.893 118.419 143.778C118.245 142.733 117.94 142.404 117.748 142.286Z" fill="#222222"/>
</svg>
