<svg width="301" height="300" viewBox="0 0 301 300" fill="none" xmlns="http://www.w3.org/2000/svg">
<path fill-rule="evenodd" clip-rule="evenodd" d="M154.657 29.7987C154.602 28.0001 154.205 27.1347 153.707 26.656C153.185 26.1542 152.35 25.8746 150.929 25.7238C150.187 25.6451 149.614 25.6992 149.164 25.8596C148.731 26.014 148.357 26.2855 148.028 26.7433C147.385 27.6412 146.965 28.7055 146.777 29.437C146.741 29.5793 146.673 29.7118 146.58 29.825C146.268 30.2023 145.836 30.9708 145.328 32.0675C144.833 33.1367 144.302 34.435 143.778 35.8048C142.93 38.0247 142.114 40.4021 141.516 42.2369C144.579 42.5233 148.57 43.044 152.017 43.8124C152.077 43.625 152.147 43.3968 152.23 43.1146C152.524 42.1145 152.98 40.4273 153.679 37.4697C154.582 33.6443 154.624 31.4947 154.65 30.1105C154.652 30.002 154.654 29.8982 154.657 29.7987ZM153.963 44.2909C154.018 44.1178 154.079 43.9159 154.149 43.6786C154.456 42.6332 154.922 40.9088 155.625 37.9293C156.576 33.9012 156.622 31.5928 156.65 30.1569C156.652 30.0388 156.654 29.9267 156.657 29.82C156.669 29.2946 156.682 28.8259 156.694 28.4071C156.728 27.1702 156.75 26.3698 156.719 25.8371C156.697 25.4629 156.647 25.1113 156.504 24.782C156.355 24.4374 156.142 24.2041 155.965 24.0251C155.127 23.1805 152.672 21.6513 149.042 22.3276C148.095 22.5041 147.472 23.1571 147.073 23.8099C146.71 24.4047 146.468 25.1011 146.295 25.7321C145.6 26.7477 145.141 27.8726 144.897 28.7313C144.446 29.3343 143.974 30.2319 143.513 31.2268C142.991 32.3539 142.442 33.6992 141.91 35.091C140.976 37.535 140.083 40.1582 139.468 42.0693C138.503 42.0029 137.707 41.969 137.166 41.969C136.469 41.969 135.673 41.9342 134.805 41.8964C134.517 41.8839 134.221 41.871 133.918 41.8589C132.724 41.8113 131.446 41.7777 130.253 41.8438C129.072 41.9092 127.892 42.0753 126.924 42.4708C125.939 42.8735 125.053 43.5711 124.744 44.7399C124.299 46.4213 125.034 47.7414 125.967 48.614C126.669 49.2706 127.531 49.73 128.258 50.0115C128.272 50.2785 128.204 50.4227 128.16 50.492C128.096 50.5937 128.005 50.6574 127.939 50.69C125.169 50.8137 122.706 51.5049 120.963 53.0023C119.145 54.5654 118.263 56.8757 118.483 59.8631C118.674 62.4662 120.307 64.3462 122.089 65.6021C122.591 65.9556 123.115 66.2675 123.639 66.5398C122.475 66.8918 121.457 67.3903 120.608 68.0529C118.888 69.3963 117.977 71.3254 117.878 73.732C117.783 76.021 118.796 77.8316 120.026 79.1273C120.448 79.5727 120.902 79.9642 121.357 80.302C120.171 80.7458 119.09 81.4352 118.253 82.4246C116.795 84.1499 116.226 86.6119 116.893 89.7867C117.566 92.9833 120.086 94.542 122.664 95.2147C124.826 95.7787 127.177 95.7725 128.961 95.5654C128.965 95.7514 128.957 95.9853 128.923 96.2732C128.816 97.1786 128.47 98.5085 127.621 100.299C126.523 102.613 126.171 104.572 126.189 106.029C120.078 103.217 113.844 103.038 108.723 103.843C103.131 104.723 98.7328 106.798 97.1526 108.05C95.7802 109.137 95.1841 110.593 94.9859 111.912C94.8623 112.734 94.8885 113.527 94.9853 114.193C94.8069 114.293 94.6431 114.422 94.4996 114.585C94.0939 115.045 93.9977 115.611 94 116.059C94.0047 116.93 94.3826 117.861 94.6788 118.421C94.8191 118.686 95.071 118.874 95.3651 118.934C97.0721 119.278 99.8261 119.72 102.57 119.933C103.942 120.04 105.328 120.09 106.588 120.039C107.671 119.995 108.709 119.875 109.582 119.626C111.971 120.652 114.335 121.975 116.595 123.452C116.995 123.713 117.392 123.979 117.785 124.249C121.689 126.933 125.196 129.989 127.877 132.6C130.576 135.23 132.381 137.354 132.916 138.163C133.775 139.463 136.097 142.108 138.499 144.656C140.909 147.212 143.516 149.795 144.987 150.96C146.363 152.051 148.224 153.681 149.854 155.546C151.502 157.431 152.831 159.461 153.277 161.35C153.453 162.094 153.573 163.455 153.637 165.252C153.7 167.023 153.706 169.14 153.677 171.351C153.619 175.772 153.419 180.53 153.252 183.56C153.251 183.573 153.25 183.586 153.25 183.6C153.016 198.535 152.483 221.132 151.648 240.381C151.23 250.007 150.738 258.784 150.169 265.344C149.885 268.626 149.583 271.336 149.266 273.312C149.107 274.303 148.947 275.087 148.79 275.658C148.711 275.944 148.638 276.159 148.573 276.311C148.523 276.429 148.491 276.478 148.485 276.487C148.483 276.491 148.485 276.488 148.493 276.48L149.958 277.84C150.165 277.618 150.308 277.341 150.413 277.094C150.525 276.832 150.625 276.525 150.718 276.189C150.903 275.517 151.076 274.652 151.24 273.63C151.569 271.581 151.876 268.816 152.162 265.517C152.734 258.914 153.228 250.102 153.646 240.468C154.482 221.202 155.015 198.597 155.25 183.651C155.417 180.6 155.618 175.824 155.677 171.378C155.706 169.15 155.7 166.997 155.636 165.181C155.572 163.391 155.45 161.848 155.223 160.89C154.664 158.523 153.078 156.195 151.36 154.23C149.624 152.245 147.666 150.531 146.229 149.392C144.886 148.328 142.368 145.844 139.954 143.284C137.532 140.714 135.332 138.192 134.584 137.06C133.926 136.064 131.993 133.818 129.272 131.168C126.87 128.828 123.811 126.13 120.384 123.638C120.838 123.381 121.3 123.064 121.729 122.685C122.779 121.756 123.696 120.388 123.696 118.561H121.696C121.696 119.37 121.404 120.052 120.944 120.625C120.992 120.481 121.033 120.331 121.064 120.174L119.102 119.785C119.006 120.268 118.685 120.681 118.219 121.022C117.91 121.248 117.575 121.413 117.293 121.521C115.421 120.318 113.467 119.212 111.472 118.282C111.75 117.986 112.018 117.655 112.244 117.3C112.819 116.397 113.267 115.082 112.501 113.794C112.07 113.071 111.368 112.53 110.62 112.142C109.86 111.748 108.981 111.473 108.094 111.319C106.384 111.022 104.351 111.134 103.025 112.07C101.465 113.171 98.9716 113.761 96.9619 113.887C96.8936 113.406 96.8723 112.818 96.9637 112.21C97.1071 111.255 97.516 110.314 98.3946 109.617C99.6282 108.64 103.671 106.662 109.033 105.819C114.357 104.982 120.851 105.285 127.036 108.696C130.85 110.799 133.044 112.455 134.58 113.773C135.14 114.253 135.609 114.685 136.052 115.093C136.226 115.254 136.397 115.411 136.567 115.566C137.147 116.094 137.718 116.586 138.375 117.028C139.703 118.133 141.961 119.751 144.529 121.104C147.1 122.458 150.105 123.614 152.843 123.614V121.614C150.597 121.614 147.941 120.641 145.461 119.334C145.421 119.313 145.38 119.292 145.34 119.27C146.001 119.37 146.719 119.464 147.503 119.555C153.619 120.262 157.273 120.914 159.882 121.652C162.461 122.381 164.041 123.2 166.025 124.3L166.995 122.551C164.959 121.421 163.223 120.518 160.426 119.727C157.659 118.945 153.876 118.279 147.733 117.568C142.888 117.007 140.944 116.334 139.529 115.394C138.98 115.029 138.487 114.608 137.912 114.086C137.759 113.947 137.599 113.799 137.431 113.644C136.98 113.229 136.472 112.76 135.883 112.255C134.285 110.884 132.059 109.207 128.325 107.124C128.114 106.351 127.952 104.267 129.428 101.156C130.347 99.2169 130.771 97.6757 130.909 96.5074C130.954 96.1266 130.97 95.7689 130.958 95.4406C136.234 95.4106 149.881 95.217 156.879 94.8585C157.847 95.7843 159.277 96.9607 160.873 98.06C162.651 99.2846 164.704 100.461 166.607 101.071C168.575 101.703 169.517 102.615 170.373 103.797C170.621 104.138 170.877 104.531 171.156 104.96C171.832 105.997 172.647 107.247 173.818 108.503C175.877 110.709 178.01 111.325 179.547 111.265C179.522 114.141 179.787 116.97 180.026 118.789C178.44 118.762 176.359 118.564 174.339 118.048C171.765 117.391 169.502 116.274 168.344 114.557C166.599 111.969 164.152 108.99 161.79 106.455C159.456 103.95 157.105 101.768 155.553 100.874L154.555 102.607C155.817 103.334 157.988 105.307 160.327 107.818C162.253 109.885 164.224 112.242 165.795 114.405C163.744 111.835 160.766 109.658 157.754 107.922C153.778 105.63 149.574 104.01 146.898 103.214L146.328 105.131C148.877 105.889 152.933 107.451 156.755 109.654C160.61 111.877 164.061 114.658 165.614 117.79L167.406 116.901C167.247 116.579 167.071 116.263 166.882 115.951C168.491 118.113 171.233 119.32 173.845 119.986C176.163 120.578 178.533 120.783 180.292 120.792C180.375 121.904 180.362 123.447 180.283 125.282C180.184 127.62 179.984 130.339 179.783 133.08C179.6 135.565 180.586 138.025 181.787 140.022C182.982 142.009 184.463 143.658 185.498 144.601C186.179 145.357 187.186 146.569 188.021 147.78C188.446 148.396 188.812 148.991 189.068 149.512C189.339 150.064 189.427 150.416 189.427 150.582H191.427C191.427 149.937 191.163 149.241 190.863 148.63C190.548 147.988 190.122 147.304 189.668 146.645C189.19 145.952 188.665 145.265 188.168 144.652C188.52 144.523 188.846 144.363 189.138 144.197C189.806 143.817 190.394 143.348 190.823 142.944C191.038 142.948 191.235 142.945 191.407 142.936C191.551 142.929 191.688 142.917 191.811 142.898C191.893 142.886 192.095 142.855 192.284 142.76C192.625 142.588 192.765 142.286 192.798 142.214L192.799 142.212C192.855 142.091 192.89 141.969 192.914 141.876C192.957 141.704 192.989 141.503 193.016 141.295C193.504 141.667 194.075 141.922 194.637 142.022C195.195 142.12 195.915 142.089 196.482 141.632C196.95 141.254 197.416 140.73 197.825 140.217C198.241 143.291 198.754 147.55 198.874 150.221C199.069 154.527 198.496 157.047 197.502 160.856C196.878 163.032 196.04 166.26 195.282 169.76C192.618 169.76 187.674 169.402 184.179 167.972C179.929 166.233 174.901 165.967 172.891 166.048L172.971 168.046C174.816 167.972 179.531 168.231 183.421 169.823C187.074 171.318 191.991 171.722 194.865 171.757C194.557 173.294 194.273 174.856 194.036 176.383C191.911 176.134 187.974 175.265 184.304 173.123C178.52 169.748 171.826 169.748 171.086 169.748H171.081V171.748C171.756 171.748 177.994 171.757 183.296 174.851C187.205 177.132 191.375 178.078 193.755 178.363C193.403 181.104 193.244 183.679 193.452 185.658C193.635 187.39 194.066 191.079 194.623 195.847C195.294 201.589 196.148 208.895 196.97 216.229C198.482 229.71 199.878 243.226 199.878 247.55C199.878 256.406 200.672 265.514 203.327 275.791L205.263 275.29C202.659 265.21 201.878 256.275 201.878 247.55C201.878 243.083 200.461 229.418 198.958 216.006C198.132 208.641 197.278 201.334 196.608 195.6C196.053 190.849 195.623 187.178 195.441 185.449C195.233 183.475 195.435 180.69 195.877 177.599C196.187 175.435 196.609 173.156 197.072 170.954C197.863 167.199 198.769 163.689 199.428 161.396L199.434 161.372C200.448 157.487 201.08 154.738 200.872 150.131C200.715 146.647 199.922 140.652 199.504 137.795L201.749 133.644C203.018 131.49 205.776 126.743 206.598 125.085C206.804 124.669 206.9 124.158 206.95 123.659C207.001 123.141 207.01 122.543 206.99 121.897C206.951 120.606 206.796 119.043 206.594 117.401C206.403 115.845 206.174 114.247 205.954 112.706C205.698 110.914 205.453 109.198 205.289 107.711C204.82 103.458 202.207 101.626 200.322 101.101C199.305 94.191 195.747 90.6866 194.044 89.0094C193.996 88.9613 193.948 88.9147 193.903 88.8695C193.432 88.4047 192.699 87.5376 191.755 86.4066C191.666 86.3002 191.576 86.1917 191.484 86.0814C190.615 85.041 189.613 83.8394 188.554 82.6374C187.383 81.3086 186.13 79.9633 184.893 78.816C183.667 77.6797 182.404 76.6866 181.213 76.1145C180.028 75.5456 178.449 75.701 176.913 76.0874C175.317 76.4887 173.51 77.209 171.701 78.0621C168.548 79.5486 165.282 81.4893 162.923 83.0268C162.221 81.822 161.161 81.0543 160.062 80.5634C160.903 79.9908 161.57 79.31 162.074 78.5496C162.997 77.1574 163.323 75.5708 163.238 74.0468C163.108 71.7386 162.016 69.4227 160.402 67.9875C161.99 66.8441 163.691 64.6717 163.691 61.2084C163.691 58.6341 162.085 56.7817 160.32 55.5623C158.839 54.5391 157.131 53.874 155.791 53.5143C155.795 53.4986 155.799 53.4824 155.803 53.466C155.834 53.3436 155.873 53.218 155.915 53.097C156.562 53.0512 157.313 52.8593 158.009 52.4146C159.059 51.7443 159.879 50.5651 160.068 48.7472C160.145 48.0097 159.844 47.3806 159.417 46.8943C159.003 46.4217 158.428 46.0304 157.799 45.6988C156.773 45.1579 155.437 44.6921 153.963 44.2909ZM155.744 53.8909C155.745 53.8953 155.745 53.8976 155.745 53.8978C155.745 53.8979 155.744 53.8957 155.744 53.8909ZM153.83 53.119C153.841 53.072 153.852 53.0259 153.863 52.9811C153.992 52.4654 154.202 51.9612 154.359 51.6444C154.547 51.2655 154.953 51.0458 155.373 51.0956C155.758 51.1413 156.39 51.0753 156.933 50.7291C157.427 50.4131 157.947 49.8022 158.079 48.5396C158.082 48.5107 158.089 48.4136 157.914 48.2133C157.726 47.9993 157.39 47.7439 156.867 47.468C155.824 46.9186 154.283 46.4129 152.453 45.9672C148.484 45.001 143.461 44.3885 140.102 44.1218C138.797 44.0182 137.77 43.969 137.166 43.969C136.422 43.969 135.562 43.9314 134.681 43.893C134.401 43.8808 134.12 43.8685 133.839 43.8573C132.652 43.81 131.455 43.7802 130.363 43.8408C129.257 43.902 128.34 44.0526 127.681 44.3221C127.039 44.5844 126.77 44.9001 126.677 45.2512C126.479 46.0018 126.749 46.6069 127.333 47.153C127.944 47.7243 128.803 48.1174 129.404 48.2905C129.731 48.3849 129.988 48.6396 130.086 48.9663C130.296 49.6731 130.308 50.3084 130.16 50.8549C134.324 51.2097 140.274 51.6967 141.186 51.6967V53.6967C140.01 53.6967 131.969 53.0212 128.098 52.685C125.53 52.7896 123.549 53.4168 122.267 54.519C121.021 55.5906 120.295 57.2321 120.477 59.7166C120.608 61.4909 121.721 62.8956 123.241 63.9673C124.279 64.6987 125.447 65.2291 126.456 65.5722L125.989 64.8157C126.382 64.5736 126.923 64.4831 127.377 64.434C127.885 64.379 128.504 64.3579 129.191 64.3602C130.569 64.365 132.306 64.465 134.147 64.6144C137.803 64.9113 141.944 65.4097 144.67 65.782C147.669 65.7765 150.618 65.8203 153.087 65.9838C154.332 66.0662 155.469 66.1799 156.437 66.3362C157.197 66.459 157.895 66.6142 158.471 66.8197C159.658 66.2688 161.691 64.5772 161.691 61.2084C161.691 59.5674 160.685 58.2447 159.184 57.2078C157.687 56.1737 155.861 55.5475 154.65 55.2972L154.634 55.2937C153.255 54.9846 148.14 54.3694 145.697 54.0957L145.92 52.1082C147.843 52.3236 151.642 52.7747 153.83 53.119ZM157.168 79.7856C158.771 79.2215 159.79 78.3753 160.407 77.4448C161.055 76.4674 161.306 75.3236 161.241 74.1587C161.106 71.756 159.657 69.5326 158.058 68.8068C157.662 68.6272 157.018 68.4559 156.118 68.3107C155.234 68.168 154.165 68.0596 152.955 67.9794C150.536 67.8192 147.615 67.7758 144.605 67.7821C142.322 67.7869 139.978 67.8208 137.776 67.8526C134.572 67.8989 131.671 67.9409 129.7 67.8824C128.95 67.8602 128.242 67.8684 127.576 67.9065C124.96 68.0567 123.074 68.6651 121.839 69.6293C120.644 70.5625 119.955 71.9098 119.876 73.8146C119.81 75.4167 120.505 76.7266 121.477 77.7509C122.378 78.7012 123.474 79.3542 124.255 79.6865C124.752 79.6494 125.254 79.6429 125.754 79.6648C129.614 79.834 146.794 79.7182 152.924 79.6768C154.089 79.669 154.855 79.6638 155.054 79.6638H155.059C155.44 79.6638 156.228 79.6638 157.168 79.7856ZM163.719 84.8967C164.562 87.4026 163.808 89.5712 162.512 91.2137C161.523 92.4659 160.212 93.4352 159.017 94.101C159.834 94.8133 160.871 95.6299 162.007 96.4128C163.644 97.5402 165.426 98.5539 167.01 99.0981C168.853 98.8419 171.093 98.1271 173.204 97.2987C174.689 96.7163 176.077 96.0906 177.173 95.559C176.27 94.6999 175.384 93.5877 174.65 92.0345L176.459 91.1805C177.342 93.0512 178.47 94.1377 179.574 94.9714C179.964 95.2658 180.317 95.506 180.675 95.7493C180.899 95.902 181.126 96.0559 181.364 96.2253C181.936 96.6316 182.521 97.0914 182.979 97.6845C183.472 98.3241 184.396 99.195 185.409 100.057C185.72 100.322 186.032 100.58 186.335 100.825C186.338 100.782 186.342 100.74 186.347 100.697C186.441 99.7977 186.733 98.8618 187.351 97.7945L189.082 98.796C188.589 99.6479 188.397 100.316 188.336 100.904C188.273 101.512 188.341 102.086 188.445 102.815C188.452 102.861 188.459 102.908 188.465 102.955C188.515 103.298 188.569 103.675 188.609 104.074C188.651 104.505 188.685 105.17 188.725 105.961C188.735 106.156 188.746 106.359 188.756 106.568C188.813 107.644 188.887 108.927 189.011 110.288C189.261 113.035 189.705 116.007 190.555 118.2C191.797 121.398 194.167 121.754 195.056 121.632C195.124 121.615 195.202 121.593 195.285 121.568C195.052 121.388 194.832 121.201 194.632 121.014C194.339 120.738 194.066 120.438 193.859 120.132C193.672 119.855 193.447 119.442 193.447 118.967C193.447 118.745 193.439 118.448 193.43 118.085C193.391 116.574 193.323 113.917 193.653 110.756C193.856 108.817 194.958 107.696 196.243 107.161C197.013 106.84 197.832 106.732 198.548 106.737C198.648 105.012 198.595 103.458 198.431 102.059C197.647 95.3644 194.313 92.0805 192.641 90.4339C192.591 90.3853 192.543 90.338 192.497 90.2922C191.942 89.7437 191.137 88.7869 190.22 87.6886C190.131 87.582 190.041 87.4737 189.949 87.3639C189.079 86.3214 188.093 85.1402 187.053 83.9595C185.903 82.6536 184.7 81.3644 183.533 80.2825C182.354 79.1895 181.266 78.3587 180.347 77.9174C179.844 77.6757 178.878 77.6554 177.401 78.0269C175.984 78.3834 174.309 79.0437 172.554 79.8711C169.37 81.3723 166.039 83.3681 163.719 84.8967ZM198.48 108.737C198.001 108.739 197.475 108.814 197.012 109.007C196.334 109.289 195.762 109.823 195.642 110.964C195.328 113.973 195.39 116.447 195.429 117.98C195.438 118.338 195.445 118.645 195.447 118.895C195.457 118.917 195.478 118.955 195.516 119.011C195.614 119.157 195.777 119.345 196.002 119.557C196.453 119.98 197.061 120.413 197.644 120.711C198.05 120.919 198.373 121.025 198.585 121.056C198.606 120.948 198.629 120.8 198.65 120.606C198.688 120.259 198.712 119.826 198.726 119.316C198.754 118.299 198.736 117.035 198.698 115.676C198.672 114.724 198.636 113.721 198.6 112.731C198.549 111.313 198.499 109.919 198.48 108.737ZM200.471 107.864C200.473 109.166 200.533 110.844 200.597 112.6C200.633 113.599 200.67 114.624 200.697 115.62C200.735 116.988 200.754 118.296 200.725 119.37C200.711 119.907 200.684 120.4 200.639 120.82C200.596 121.221 200.529 121.626 200.409 121.95C200.259 122.352 199.981 122.672 199.603 122.864C199.25 123.044 198.878 123.08 198.563 123.063C198.182 123.042 197.786 122.938 197.405 122.793C197.197 122.936 196.969 123.055 196.758 123.15C196.475 123.279 196.179 123.385 195.918 123.466C195.212 124.77 193.898 127.74 193.218 131.313C192.904 132.968 192.931 134.082 193.069 134.798C193.499 133.974 194.015 133.062 194.585 132.213C195.074 131.484 195.619 130.775 196.201 130.202C196.769 129.643 197.451 129.135 198.222 128.941C198.925 128.763 199.587 128.839 200.154 129.163C200.695 129.472 201.052 129.952 201.287 130.414C201.292 130.425 201.298 130.435 201.303 130.445C202.627 128.164 204.234 125.351 204.806 124.197C204.851 124.106 204.918 123.882 204.96 123.462C204.999 123.062 205.009 122.557 204.991 121.958C204.955 120.76 204.809 119.27 204.609 117.645C204.431 116.197 204.205 114.611 203.984 113.057C203.72 111.206 203.463 109.401 203.301 107.93C203.004 105.231 201.668 103.911 200.549 103.33C200.632 104.723 200.614 106.231 200.471 107.864ZM199.872 132.912C199.845 132.389 199.731 131.766 199.505 131.321C199.378 131.073 199.253 130.952 199.161 130.899C199.095 130.862 198.973 130.814 198.711 130.88C198.443 130.947 198.068 131.171 197.604 131.628C197.154 132.07 196.693 132.66 196.246 133.327C195.351 134.661 194.579 136.199 194.108 137.22C193.957 137.546 193.839 137.815 193.759 138.003C193.448 138.734 193.707 139.291 194.197 139.68C194.456 139.885 194.748 140.01 194.985 140.052C195.15 140.081 195.228 140.063 195.247 140.058C195.642 139.733 196.111 139.181 196.567 138.574C196.913 138.112 197.215 137.67 197.447 137.33C197.507 137.242 197.563 137.16 197.613 137.087L199.872 132.912ZM191.236 135.715C190.925 134.666 190.853 133.196 191.208 131.187C191.022 130.644 190.803 130.464 190.687 130.404C190.561 130.337 190.341 130.301 189.963 130.442C189.163 130.741 188.211 131.651 187.689 132.615C186.781 134.294 186.931 136.087 187.125 138.398C187.152 138.709 187.178 139.029 187.204 139.359C187.233 139.748 187.493 140.105 188.174 140.416C188.852 140.726 189.736 140.879 190.492 140.928C190.696 140.941 190.883 140.946 191.044 140.946C191.09 140.545 191.128 139.996 191.157 139.37C191.213 138.153 191.234 136.719 191.236 135.715ZM191.765 128.717C192.334 126.604 193.054 124.798 193.647 123.534C191.943 123.178 189.864 121.946 188.691 118.923C187.733 116.454 187.272 113.245 187.019 110.47C186.892 109.07 186.816 107.756 186.759 106.673C186.747 106.446 186.736 106.232 186.726 106.03C186.686 105.246 186.656 104.65 186.618 104.271C186.592 104.011 186.56 103.762 186.524 103.51C185.872 103.019 184.985 102.323 184.112 101.58C183.093 100.712 182.027 99.7255 181.395 98.906C181.125 98.5562 180.741 98.2355 180.206 97.8559C180.035 97.7341 179.836 97.5987 179.623 97.4533C179.389 97.2936 179.137 97.1218 178.883 96.9424C177.656 97.5679 175.874 98.3999 173.935 99.1605C172.656 99.6623 171.287 100.142 169.95 100.51C170.794 101.125 171.425 101.84 171.993 102.623C172.339 103.1 172.643 103.568 172.949 104.04C173.583 105.017 174.228 106.011 175.28 107.138C177.08 109.066 178.731 109.332 179.615 109.255C179.704 107.816 179.888 106.399 180.214 105.138L182.15 105.639C181.816 106.931 181.64 108.473 181.575 110.09C181.421 113.911 181.893 117.949 182.169 119.614C182.389 120.946 182.382 123.021 182.281 125.368C182.18 127.739 181.978 130.487 181.778 133.215L181.777 133.226C181.638 135.118 182.394 137.151 183.501 138.991C184.51 140.668 185.749 142.084 186.647 142.939C187.042 142.945 187.525 142.799 188.058 142.509C187.814 142.432 187.574 142.341 187.342 142.235C186.355 141.783 185.319 140.947 185.209 139.511C185.186 139.21 185.159 138.904 185.132 138.594C184.933 136.351 184.716 133.907 185.93 131.664C186.614 130.399 187.893 129.08 189.264 128.568C189.972 128.304 190.822 128.216 191.615 128.632C191.666 128.658 191.716 128.687 191.765 128.717ZM196.337 121.093C196.337 121.093 196.336 121.094 196.334 121.096C196.336 121.094 196.337 121.093 196.337 121.093ZM157.04 92.8474C158.259 92.3293 159.873 91.3291 160.942 89.9747C162.015 88.6151 162.517 86.9524 161.583 84.9344C161.565 84.8951 161.549 84.8546 161.536 84.8133C160.919 82.8417 158.978 82.0743 157.118 81.7978C156.221 81.6644 155.45 81.6638 155.054 81.6638C154.873 81.6638 154.156 81.6687 153.054 81.6762C147.041 81.7169 129.598 81.8352 125.667 81.6629C125.171 81.6412 124.679 81.6525 124.198 81.6985C122.357 81.8744 120.771 82.5448 119.781 83.7159C118.816 84.8568 118.276 86.642 118.851 89.375C119.304 91.5287 120.971 92.7059 123.169 93.2795C125.378 93.856 127.909 93.7474 129.558 93.4597C129.615 93.4497 129.672 93.4448 129.73 93.4448C133.714 93.4448 149.559 93.2451 157.04 92.8474ZM109.172 117.661C109.622 117.33 110.19 116.801 110.557 116.226C110.96 115.592 110.981 115.151 110.782 114.817C110.61 114.527 110.257 114.206 109.699 113.917C109.152 113.633 108.474 113.414 107.753 113.289C106.247 113.028 104.863 113.221 104.179 113.704C101.934 115.288 98.4831 115.913 96.1657 115.913C96.0909 115.913 96.0403 115.919 96.0079 115.926C96.0036 115.952 95.9997 115.992 96 116.048C96.0015 116.33 96.106 116.71 96.2528 117.069C97.908 117.383 100.326 117.753 102.725 117.939C104.049 118.042 105.351 118.088 106.507 118.041C107.605 117.996 108.515 117.87 109.172 117.661ZM95.9588 115.941C95.9585 115.94 95.9611 115.939 95.9675 115.936C95.9622 115.94 95.959 115.941 95.9588 115.941Z" fill="#222222"/>
</svg>
